<svg width="300" height="235" viewBox="0 0 300 235" fill="none" xmlns="http://www.w3.org/2000/svg">
<g clip-path="url(#clip0_80_44)">
<path opacity="0.4" d="M209.713 193.631L151.819 160.265C151.486 160.075 151.21 159.797 151.022 159.463C150.833 159.128 150.737 158.749 150.746 158.365C150.755 157.981 150.867 157.606 151.07 157.281C151.274 156.955 151.562 156.691 151.903 156.515L159.187 152.753C159.505 152.591 159.859 152.51 160.216 152.518C160.574 152.527 160.924 152.624 161.234 152.801L221.073 187.291C221.406 187.482 221.682 187.76 221.87 188.095C222.059 188.43 222.154 188.809 222.145 189.194C222.137 189.578 222.025 189.953 221.821 190.279C221.618 190.605 221.33 190.87 220.989 191.047L215.705 193.769C214.775 194.251 213.739 194.491 212.692 194.466C211.644 194.442 210.62 194.155 209.713 193.631V193.631Z" fill="#D6D8E5"/>
<path d="M213.262 187.351L163.918 158.841C159.715 156.437 156.347 149.947 156.347 144.37V6.61059C156.347 1.03364 159.739 -1.53248 163.918 0.883396L213.262 29.4472C217.465 31.8511 220.833 38.3415 220.833 43.9185V181.659C220.833 187.206 217.441 189.766 213.262 187.351Z" fill="#B1B4C4"/>
<path d="M214.108 189.833L218.017 187.855L214.27 181.425L214.108 189.833Z" fill="#B1B4C4"/>
<path d="M155.596 2.28363L159.193 0.396606L158.466 5.70312L155.596 2.28363Z" fill="#B1B4C4"/>
<path d="M210.151 188.925L160.814 160.415C156.611 158.012 153.248 151.521 153.248 145.944V8.20916C153.248 2.63221 156.635 0.0660909 160.814 2.48197L210.151 30.9917C214.354 33.3956 217.717 39.886 217.717 45.4629V183.204C217.687 188.781 214.3 191.341 210.151 188.925Z" fill="#616E84"/>
<path d="M217.158 45.8175V183.547C217.158 189.129 213.772 191.69 209.593 189.28L190.247 178.096L184.243 174.622L160.255 160.77C156.052 158.366 152.69 151.876 152.69 146.293V8.5637C152.69 3.00478 156.076 0.420635 160.255 2.8305L209.593 31.3403C213.754 33.7561 217.158 40.2646 217.158 45.8175Z" fill="#20232D"/>
<path d="M213.604 44.4172V178.564C213.604 181.942 211.232 183.318 208.308 181.623L192.883 172.711L191.538 171.924L191.082 171.659L187.749 169.73L178.1 164.165L174.095 161.852L172.486 160.92L161.516 154.604C158.592 152.915 156.226 148.799 156.226 145.421V11.274C156.226 7.89061 158.592 6.52042 161.516 8.20913L180.778 19.345V19.3991C180.861 20.8331 181.28 22.2274 182.002 23.4689C182.724 24.7103 183.728 25.764 184.933 26.5445C187.215 27.8486 189.064 26.7909 189.064 24.1407C189.064 24.1407 189.064 24.0986 189.064 24.0806L208.326 35.2165C211.232 36.9232 213.604 41.0338 213.604 44.4172Z" fill="white"/>
<path d="M186.768 25.2582C187.383 24.9048 187.386 23.7568 186.776 22.6942C186.166 21.6315 185.173 21.0567 184.559 21.4101C183.944 21.7636 183.941 22.9116 184.551 23.9742C185.161 25.0368 186.154 25.6117 186.768 25.2582Z" fill="#2B303F"/>
<path opacity="0.1" d="M184.933 23.9965C184.739 23.8696 184.578 23.6982 184.463 23.4965C184.348 23.2948 184.283 23.0686 184.273 22.8366C184.273 22.4159 184.567 22.2357 184.927 22.458C185.118 22.5821 185.277 22.7498 185.391 22.9472C185.504 23.1446 185.57 23.3662 185.582 23.5938C185.582 24.0386 185.287 24.2068 184.933 23.9965Z" fill="white"/>
<path d="M219.158 63.9366C218.755 64.1709 218.425 63.9366 218.425 63.3837V57.5123C218.431 57.2389 218.5 56.9706 218.627 56.7286C218.754 56.4866 218.936 56.2776 219.158 56.118C219.56 55.8897 219.884 56.118 219.884 56.6709V62.5423C219.881 62.8155 219.813 63.0839 219.687 63.3261C219.561 63.5683 219.38 63.7774 219.158 63.9366V63.9366Z" fill="#757B89"/>
<path d="M219.158 73.558C218.755 73.7924 218.425 73.558 218.425 73.0111V67.1337C218.431 66.8603 218.5 66.592 218.627 66.35C218.754 66.108 218.936 65.899 219.158 65.7394C219.56 65.5111 219.884 65.7394 219.884 66.2923V72.1638C219.881 72.437 219.814 72.7056 219.688 72.9479C219.561 73.1901 219.38 73.3992 219.158 73.558V73.558Z" fill="#757B89"/>
<path opacity="0.4" d="M103.551 155.614L51.9434 185.632L0 155.614L51.6072 125.596L103.551 155.614Z" fill="#D6D8E5"/>
<path d="M107.531 148.594L107.519 153.757L55.9122 183.775L55.9242 178.607L107.531 148.594Z" fill="#D3D3DD"/>
<path d="M55.9242 178.607L55.9122 183.775L3.96881 153.757L3.98082 148.594L55.9242 178.607Z" fill="#E0DEE9"/>
<path d="M107.531 148.594L55.9243 178.607L3.9809 148.594L55.5881 118.576L107.531 148.594Z" fill="#EAEAF4"/>
<path d="M99.4856 70.3128L99.2634 147.795L55.8281 173.06L56.0503 95.5773L99.4856 70.3128Z" fill="#D3D3DD"/>
<path d="M56.0504 95.5773L55.8282 173.06L12.1107 147.795L12.3269 70.3128L56.0504 95.5773Z" fill="#E0DEE9"/>
<path d="M99.4856 70.3128L56.0503 95.5774L12.3268 70.3128L55.7621 45.0483L99.4856 70.3128Z" fill="#EAEAF4"/>
<path d="M23.597 104.189L23.573 112.224L16.596 108.192L16.614 100.157L23.597 104.189Z" fill="#2A313F"/>
<path d="M23.627 93.0173L23.6089 101.046L16.6259 97.0137L16.6499 88.9848L23.627 93.0173Z" fill="#2A313F"/>
<path d="M23.663 81.8393L23.639 89.8742L16.6559 85.8417L16.68 77.8068L23.663 81.8393Z" fill="#2A313F"/>
<path d="M51.8052 131.689L51.7872 139.724L26.7372 125.247L26.7552 117.212L51.8052 131.689Z" fill="#2A313F"/>
<path d="M51.8413 120.511L51.8173 128.546L26.7673 114.069L26.7913 106.034L51.8413 120.511Z" fill="#2A313F"/>
<path d="M51.8714 109.339L51.8473 117.368L26.7973 102.891L26.8213 94.8622L51.8714 109.339Z" fill="#2A313F"/>
<path d="M51.9013 98.1615L51.8773 106.196L26.8333 91.7192L26.8513 83.6843L51.9013 98.1615Z" fill="#2A313F"/>
<path d="M23.5369 126.539L23.5129 134.574L16.5298 130.541L16.5539 122.507L23.5369 126.539Z" fill="#2A313F"/>
<path d="M23.567 115.367L23.543 123.402L16.5599 119.37L16.584 111.335L23.567 115.367Z" fill="#2A313F"/>
<path d="M51.7753 142.861L51.7513 150.896L26.7013 136.419L26.7253 128.384L51.7753 142.861Z" fill="#2A313F"/>
<path d="M67.0743 105.391L67.0983 113.426L60.1153 117.458L60.0912 109.424L67.0743 105.391Z" fill="#2A313F"/>
<path d="M67.0442 94.2131L67.0683 102.248L60.0792 106.281L60.0612 98.2516L67.0442 94.2131Z" fill="#2A313F"/>
<path d="M95.4087 122.597L95.4327 130.626L70.3827 145.103L70.3587 137.074L95.4087 122.597Z" fill="#2A313F"/>
<path d="M95.3787 111.425L95.3967 119.454L70.3526 133.931L70.3286 125.896L95.3787 111.425Z" fill="#2A313F"/>
<path d="M95.3426 100.247L95.3666 108.276L70.3166 122.753L70.2925 114.724L95.3426 100.247Z" fill="#2A313F"/>
<path d="M95.3127 89.0749L95.3367 97.1038L70.2867 111.581L70.2626 103.546L95.3127 89.0749Z" fill="#2A313F"/>
<path d="M95.2826 77.897L95.3066 85.9259L70.2566 100.403L70.2326 92.3682L95.2826 77.897Z" fill="#2A313F"/>
<path d="M67.1703 138.919L67.1944 146.948L60.2053 150.98L60.1873 142.951L67.1703 138.919Z" fill="#2A313F"/>
<path d="M67.1404 127.741L67.1644 135.776L60.1754 139.808L60.1514 131.773L67.1404 127.741Z" fill="#2A313F"/>
<path d="M67.1043 116.569L67.1283 124.598L60.1453 128.63L60.1213 120.601L67.1043 116.569Z" fill="#2A313F"/>
<path d="M99.2815 141.545L99.2634 147.795L55.8342 173.06L55.8462 166.659L99.2815 141.545Z" fill="#9052FE"/>
<path d="M55.8462 166.659L55.8282 173.06L12.1107 147.795L12.1287 141.395L55.8462 166.659Z" fill="#9052FE"/>
<path d="M55.558 71.3405C55.7261 71.3405 55.8882 71.3405 56.0503 71.3405L58.5361 72.7708C56.7606 73.3084 54.8658 73.3084 53.0902 72.7708L55.558 71.3405Z" fill="#2A313F"/>
<path d="M44.7623 62.2298C51.0968 59.1649 60.3735 59.1649 66.7441 62.2298L64.5045 63.5339C59.3888 61.1721 52.0995 61.1721 47.0199 63.5339L44.7623 62.2298Z" fill="#2A313F"/>
<path d="M48.635 64.4474C53.228 62.5787 58.3684 62.5787 62.9613 64.4474L60.7037 65.7575C57.5422 64.5859 54.0661 64.5859 50.9046 65.7575L48.635 64.4474Z" fill="#2A313F"/>
<path d="M53.0541 67.0195C54.8313 66.4788 56.7289 66.4788 58.5061 67.0195L56.0383 68.4558C55.8704 68.4438 55.7018 68.4438 55.5339 68.4558L53.0541 67.0195Z" fill="#2A313F"/>
<path d="M58.2779 70.0424C58.2929 69.9468 58.2929 69.8495 58.2779 69.7539L60.7457 68.3176C60.9651 68.5176 61.1404 68.7612 61.2603 69.0328C61.3802 69.3044 61.4422 69.5982 61.4422 69.8952C61.4422 70.1921 61.3802 70.4859 61.2603 70.7575C61.1404 71.0292 60.9651 71.2727 60.7457 71.4727L58.2779 70.0424Z" fill="#2A313F"/>
<path d="M62.9493 72.7167C64.9608 71.016 64.9488 68.7443 62.9493 67.0376L65.207 65.7275C68.4433 68.1674 68.4613 71.5929 65.249 74.0328L62.9493 72.7167Z" fill="#2A313F"/>
<path d="M48.635 67.0556C46.6235 68.7623 46.6416 71.034 48.671 72.7347L46.4134 74.0508C43.1771 71.6109 43.1591 68.1854 46.3654 65.7455L48.635 67.0556Z" fill="#2A313F"/>
<path d="M66.8041 74.9643C70.857 72.0136 70.827 67.7828 66.7501 64.832L68.9897 63.528C74.2915 67.2059 74.3275 72.5905 69.0617 76.2684L66.8041 74.9643Z" fill="#2A313F"/>
<path d="M47.0919 76.2624C52.2016 78.6182 59.4908 78.6182 64.5765 76.2624L66.8281 77.5665C60.4996 80.6314 51.2169 80.6314 44.8523 77.5665L47.0919 76.2624Z" fill="#2A313F"/>
<path d="M44.7862 64.832C40.7393 67.7828 40.7633 72.0076 44.8462 74.9643L42.6306 76.2684C37.3228 72.5905 37.2928 67.2059 42.5526 63.528L44.7862 64.832Z" fill="#2A313F"/>
<path d="M50.9227 74.0328C54.082 75.2045 57.5563 75.2045 60.7157 74.0328L62.9914 75.3489C58.3984 77.2176 53.258 77.2176 48.665 75.3489L50.9227 74.0328Z" fill="#2A313F"/>
<path d="M53.3063 69.7539C53.2913 69.8495 53.2913 69.9468 53.3063 70.0424L50.8385 71.4787C50.6189 71.2782 50.4436 71.0341 50.3236 70.762C50.2036 70.4898 50.1416 70.1956 50.1416 69.8982C50.1416 69.6007 50.2036 69.3065 50.3236 69.0344C50.4436 68.7622 50.6189 68.5181 50.8385 68.3176L53.3063 69.7539Z" fill="#2A313F"/>
<path d="M200.544 122.525C201.242 122.976 201.823 123.585 202.24 124.304C202.658 125.022 202.899 125.829 202.946 126.659V130.752C202.946 132.272 201.865 132.885 200.544 132.116L167.857 113.234C167.16 112.783 166.579 112.173 166.161 111.454C165.744 110.736 165.502 109.929 165.455 109.099V105.006C165.455 103.486 166.542 102.873 167.857 103.636L200.544 122.525Z" fill="#D5D7E2"/>
<path opacity="0.4" d="M131.759 215.662C144.35 215.662 154.557 209.764 154.557 202.489C154.557 195.214 144.35 189.316 131.759 189.316C119.168 189.316 108.961 195.214 108.961 202.489C108.961 209.764 119.168 215.662 131.759 215.662Z" fill="#D6D8E5"/>
<path d="M112.881 99.8923C112.611 102.248 109.801 112.416 110.401 115.896C111.002 119.376 120.609 125.211 120.609 125.211L121.942 119.243L116.622 114.033L118.063 104.159L112.881 99.8923Z" fill="#FFCEA9"/>
<path d="M120.297 89.8682C119.363 89.4363 118.303 89.3623 117.318 89.6603C116.333 89.9582 115.491 90.6074 114.953 91.4848C113.542 93.8286 112.077 101.857 111.951 103.228C111.951 103.228 113.932 105.968 116.904 105.511L120.297 89.8682Z" fill="#EDEDED"/>
<path d="M131.26 203.24C133.357 203.826 135.601 203.556 137.499 202.489C139 202.537 147.106 199.057 148.223 201.978C149.189 204.538 145.671 206.906 143.791 207.387C139.691 208.378 136.658 210.428 135.007 210.776C133.806 211.035 132.191 211.203 131.212 210.241C130.012 209.057 130.114 204.767 131.26 203.24Z" fill="#38226D"/>
<path d="M134.977 210.043C136.628 209.695 139.661 207.639 143.762 206.654C145.341 206.269 148.055 204.544 148.325 202.489C148.691 204.845 145.515 206.936 143.762 207.363C139.661 208.354 136.628 210.404 134.977 210.752C133.776 211.011 132.161 211.179 131.182 210.217C130.93 209.935 130.747 209.598 130.648 209.232C131.256 209.696 131.965 210.011 132.716 210.152C133.468 210.293 134.242 210.255 134.977 210.043V210.043Z" fill="#9C73FF"/>
<path d="M118.087 197.321C120.173 197.897 122.401 197.627 124.289 196.569C125.791 196.617 133.896 193.132 135.013 196.059C135.98 198.619 132.467 200.987 130.588 201.467C126.481 202.459 123.449 204.508 121.798 204.857C120.597 205.115 118.982 205.283 118.003 204.316C116.838 203.126 116.94 198.847 118.087 197.321Z" fill="#38226D"/>
<path d="M121.804 204.124C123.455 203.775 126.487 201.72 130.594 200.734C132.167 200.35 134.881 198.625 135.151 196.569C135.518 198.925 132.347 201.017 130.594 201.443C126.487 202.435 123.455 204.484 121.804 204.833C120.603 205.091 118.988 205.259 118.009 204.292C117.755 204.013 117.572 203.677 117.475 203.312C118.083 203.776 118.791 204.091 119.543 204.232C120.295 204.373 121.069 204.336 121.804 204.124Z" fill="#9C73FF"/>
<path d="M117.925 175.235C118.274 172.215 118.902 169.234 119.798 166.329C119.798 166.329 119.24 158.649 118.964 151.365C118.645 143.096 115.775 135.818 118.039 129.225L143.503 134.899C143.503 134.899 141.96 167.855 141.624 171.846C141.435 174.952 141.052 178.043 140.477 181.101C139.312 187.495 137.427 202.735 137.427 202.735C134.731 204.298 131.194 203.432 131.194 203.432C131.194 203.432 131.387 184.202 131.561 179.574C131.771 173.949 131.945 174.376 131.945 174.376L131.104 160.355L130.552 153.378C130.552 153.378 129.844 158.498 129.387 163.072C128.985 167.056 128.024 170.668 126.949 178.096C126.019 184.538 124.506 197.471 124.506 197.471C121.81 199.039 118.153 197.741 118.153 197.741C118.153 197.741 117.198 180.818 117.925 175.235Z" fill="#8C50FF"/>
<path d="M121.648 90.0125C123.587 90.1026 125.034 90.6135 125.25 90.0125C125.461 89.0111 125.609 87.9975 125.694 86.9776C125.472 86.4127 125.28 85.8057 125.28 85.8057C122.842 84.3093 122.074 81.6711 121.75 78.5942C121.203 73.3477 124.037 68.7564 129.279 68.2035C134.209 67.6927 137.835 71.1602 138.802 75.9199C139.324 78.2696 140.363 82.7108 138.958 86.575C138.177 88.7384 137.157 90.4512 136.154 90.7817C135.177 90.7531 134.203 90.6669 133.236 90.5233C133.236 90.5233 132.972 91.9776 132.792 92.9272C132.611 93.8767 132.683 94.3575 134.545 95.5053C136.406 96.6531 131.729 99.0089 128.679 98.7806C125.628 98.5522 122.218 96.7553 121.287 94.7481C120.224 92.5486 120.315 89.9464 121.648 90.0125Z" fill="#FFCEA9"/>
<path d="M124.457 90.2949C123.917 91.641 125.286 93.2997 128.931 94.4295C132.575 95.5593 132.9 94.099 132.9 94.099C132.9 94.099 138.243 96.5028 139.985 97.7529C142.176 99.2853 143.143 103.714 143.437 111.19C143.779 119.844 143.809 132.681 143.521 134.898C143.521 134.898 139.432 138.973 134.202 138.546C128.973 138.12 120.164 133.48 118.033 129.904C118.087 122.314 118.976 121.082 117.751 116.683C114.941 106.677 113.458 102.579 114.827 95.9319C115.949 90.4511 117.528 89.772 119.69 89.8201C121.286 89.8938 122.878 90.0523 124.457 90.2949V90.2949Z" fill="#F4F4F4"/>
<path d="M164.224 111.948C159.907 110.944 154.293 110.445 152.378 109.147C147.742 106.004 143.93 102.837 141.12 101.214C137.805 99.2973 136.484 99.706 134.695 100.349C132.593 101.112 132.431 103.606 136.022 106.605C140.273 110.145 143.635 112.296 149.466 115.77C150.991 116.677 167.947 118.264 172.438 118.438C173.639 118.486 174.552 118.57 176.869 118.66C179.187 118.751 181.871 118.3 183.576 117.386C185.281 116.473 185.756 115.872 185.72 115.445C185.678 114.91 185.185 114.772 184.357 115.103C183.085 115.72 181.712 116.103 180.304 116.233C180.304 116.233 182.153 115.632 183.222 115.133C184.177 114.714 185.072 114.168 185.882 113.51C186.65 112.861 186.512 111.377 185.672 111.707C184.831 112.038 184.261 112.489 182.67 113.168C181.825 113.53 180.94 113.79 180.034 113.943C181.081 113.424 182.085 112.821 183.036 112.14C183.822 111.638 184.447 110.92 184.837 110.073C185.035 109.628 184.687 108.799 183.696 109.327C182.802 109.796 181.895 110.77 180.034 111.407C178.695 111.864 177.686 112.008 177.794 111.737C177.902 111.467 178.707 111.263 179.559 110.373C180.412 109.484 180.67 108.198 180.16 107.777C179.649 107.356 179.733 107.446 178.761 108.192C177.788 108.937 176.689 109.297 175.404 110.457C174.586 111.321 173.57 111.973 172.444 112.356C170.967 112.861 168.325 112.897 164.224 111.948Z" fill="#FFCEA9"/>
<path d="M132.918 98.5101C134.953 96.4368 137.349 96.2505 140.975 98.9548C144.602 101.659 147.46 103.973 147.46 103.973C147.543 105.967 146.86 107.918 145.551 109.424C143.311 112.152 141.348 111.587 141.348 111.587C141.348 111.587 137.841 108.528 135.499 106.407C133.158 104.285 130.402 101.064 132.918 98.5101Z" fill="#EDEDED"/>
<path d="M138.658 75.2468C138.658 75.2468 143.191 68.3537 133.374 66.9474C126.295 65.9378 121.744 70.4871 121.221 75.4331C120.717 80.1506 123.623 85.0485 125.719 86.9956C126.739 87.3622 128.943 87.5966 131.837 86.2564C131.952 84.9718 131.996 83.6818 131.969 82.3922C131.969 82.3922 128.523 75.1206 138.658 75.2468Z" fill="#3A2C6D"/>
<g opacity="0.4">
<path opacity="0.4" d="M289.408 216.57C296.512 220.674 302.54 220.247 295.959 225.097C279.063 237.543 270.939 235.548 263.836 231.443L232.926 213.577C225.817 209.472 230.068 200.356 237.129 196.263C244.19 192.17 251.389 194.598 258.498 198.709L289.408 216.57Z" fill="#D6D8E5"/>
</g>
<path d="M299.952 170.674C299.952 170.86 299.922 171.052 299.886 171.245C299.856 171.401 299.818 171.555 299.772 171.708C299.724 171.888 299.682 172.068 299.616 172.248C299.55 172.429 299.496 172.543 299.43 172.693C299.364 172.843 299.267 173.072 299.165 173.258C299.063 173.444 299.003 173.528 298.925 173.661C298.847 173.793 298.655 174.087 298.499 174.292C298.343 174.496 298.193 174.694 298.019 174.893C297.977 174.935 297.941 174.983 297.898 175.031C297.664 175.289 297.406 175.536 297.136 175.782C296.962 175.938 296.77 176.089 296.578 176.245C296.385 176.401 296.253 176.515 296.073 176.641C295.893 176.768 295.641 176.936 295.419 177.08C295.197 177.224 294.974 177.381 294.728 177.519C294.173 177.839 293.602 178.13 293.017 178.39L292.501 178.607C292.04 178.807 291.566 178.987 291.078 179.147C290.903 179.208 290.729 179.274 290.555 179.328C290.249 179.424 289.955 179.508 289.619 179.598C289.282 179.688 289.15 179.73 288.904 179.79C288.658 179.851 288.238 179.935 287.901 180.001C287.673 180.049 287.451 180.103 287.217 180.139C286.538 180.259 285.848 180.355 285.157 180.428L284.509 180.482C284.101 180.518 283.692 180.548 283.308 180.566C283.05 180.566 282.786 180.566 282.521 180.566C282.257 180.566 281.861 180.566 281.531 180.566C281.2 180.566 280.972 180.566 280.696 180.566C280.42 180.566 280.096 180.566 279.777 180.518L278.937 180.452L278.036 180.349L277.226 180.235L276.259 180.067L275.508 179.917C275.13 179.833 274.758 179.736 274.386 179.64L273.785 179.472C273.119 179.274 272.47 179.057 271.84 178.811C271.527 178.691 271.239 178.559 270.927 178.426C270.771 178.354 270.609 178.294 270.459 178.222C270.002 178 269.552 177.771 269.126 177.525L238.204 159.658C234.631 157.591 232.848 154.881 232.854 152.17L232.722 200.602C232.722 203.312 234.523 206.011 238.071 208.084L268.94 225.963C269.372 226.209 269.816 226.437 270.273 226.654C270.423 226.726 270.591 226.792 270.747 226.858C271.017 226.978 271.281 227.104 271.558 227.213L271.654 227.249C272.284 227.495 272.933 227.711 273.599 227.904L273.755 227.958L274.223 228.072C274.596 228.168 274.968 228.264 275.346 228.348C275.448 228.348 275.544 228.402 275.646 228.421L276.103 228.499C276.421 228.559 276.739 228.619 277.063 228.667L277.448 228.733C277.586 228.733 277.73 228.763 277.874 228.781C278.174 228.823 278.474 228.853 278.781 228.883L279.207 228.931H279.615L280.534 228.979H280.996H282.852H283.146C283.56 228.979 283.962 228.931 284.347 228.901L284.845 228.865H284.995C285.692 228.793 286.376 228.697 287.061 228.577H287.157C287.355 228.541 287.541 228.487 287.757 228.451C288.093 228.386 288.43 228.314 288.766 228.234L289.474 228.042C289.787 227.958 290.105 227.874 290.411 227.777L290.609 227.717C290.723 227.681 290.819 227.633 290.933 227.597C291.418 227.429 291.892 227.249 292.356 227.056L292.879 226.834C293.479 226.57 294.044 226.281 294.59 225.969L294.806 225.836C294.974 225.734 295.118 225.626 295.275 225.524C295.431 225.422 295.725 225.241 295.929 225.091C296.133 224.941 296.271 224.821 296.433 224.689C296.596 224.556 296.818 224.388 296.992 224.226L297.106 224.136C297.334 223.919 297.55 223.703 297.754 223.481L297.874 223.336C297.995 223.198 298.121 223.066 298.229 222.928C298.337 222.789 298.307 222.802 298.355 222.741C298.511 222.531 298.649 222.321 298.781 222.104C298.835 222.02 298.907 221.93 298.955 221.84C298.981 221.796 299.003 221.749 299.021 221.702C299.12 221.519 299.208 221.33 299.285 221.137C299.334 221.029 299.4 220.92 299.442 220.812C299.484 220.704 299.442 220.734 299.442 220.698C299.508 220.518 299.55 220.332 299.598 220.151C299.64 220.031 299.676 219.909 299.706 219.785C299.706 219.755 299.706 219.725 299.706 219.689C299.706 219.496 299.754 219.31 299.766 219.118C299.778 218.925 299.808 218.871 299.814 218.745V218.583L299.952 170.157C299.96 170.329 299.96 170.502 299.952 170.674V170.674Z" fill="#D5D7E2"/>
<path d="M294.65 162.675C301.747 166.78 301.789 173.438 294.728 177.543C287.667 181.647 276.181 181.653 269.078 177.543L238.155 159.676C231.058 155.572 231.016 148.913 238.083 144.802C245.151 140.692 256.625 140.698 263.728 144.802L294.65 162.675Z" fill="#E9EAF4"/>
<path d="M248.489 200.854L252.692 189.436C251.444 187.795 250.725 185.811 250.633 183.751C250.633 181.407 251.941 180.145 253.755 180.452C254.327 180.545 254.876 180.749 255.37 181.052C257.976 182.561 260.089 186.203 260.077 189.208C260.077 191.077 259.243 192.242 257.988 192.495L261.134 204.851L262.119 208.745L248.489 200.854Z" fill="#3A4151"/>
<path d="M251.347 199.184L255.55 187.765C254.297 186.127 253.578 184.142 253.49 182.08C253.485 181.526 253.574 180.975 253.755 180.452C254.327 180.545 254.876 180.749 255.37 181.053C257.976 182.561 260.089 186.203 260.077 189.208C260.077 191.077 259.243 192.242 257.988 192.495L261.134 204.851L251.347 199.184Z" fill="#323944"/>
<path d="M256.493 127.723C256.206 127.899 255.934 128.1 255.682 128.324L255.55 128.444C255.323 128.672 255.122 128.924 254.95 129.195L254.787 129.46L254.751 129.526C254.719 129.573 254.691 129.624 254.667 129.676C254.572 129.854 254.49 130.039 254.421 130.229C254.421 130.229 254.421 130.229 254.421 130.265C254.259 130.715 254.152 131.183 254.103 131.659V131.713C254.068 131.976 254.052 132.241 254.055 132.507L254.013 148.733V154.58C252.626 155.277 251.091 155.628 249.54 155.602V147.699V135.127C249.542 134.702 249.581 134.278 249.654 133.859C249.654 133.775 249.684 133.685 249.708 133.594C249.731 133.476 249.761 133.36 249.798 133.246C249.798 133.246 249.798 133.21 249.798 133.192C249.831 133.086 249.869 132.981 249.912 132.879C249.906 132.862 249.906 132.843 249.912 132.825C249.948 132.741 249.978 132.663 250.014 132.585C250.032 132.516 250.058 132.449 250.092 132.386C250.114 132.359 250.132 132.328 250.146 132.296C250.221 132.135 250.309 131.98 250.41 131.834C250.41 131.834 250.41 131.834 250.44 131.834C250.53 131.7 250.626 131.572 250.729 131.449C250.837 131.329 250.945 131.209 251.059 131.094C251.093 131.045 251.139 131.004 251.191 130.974C251.312 130.86 251.441 130.754 251.575 130.656C251.69 130.562 251.815 130.481 251.947 130.415C251.985 130.382 252.025 130.352 252.067 130.325L256.493 127.723Z" fill="#323944"/>
<path d="M289.336 152.363V152.915L289.294 168.979V174.887C287.92 175.561 286.406 175.901 284.875 175.878H284.821V167.976L284.851 155.524C284.853 154.865 284.817 154.207 284.743 153.552C284.707 153.234 284.665 152.903 284.611 152.573C284.611 152.531 284.611 152.477 284.611 152.429C284.569 152.176 284.527 151.912 284.467 151.659C284.473 151.624 284.473 151.587 284.467 151.551C284.335 150.914 284.179 150.265 283.993 149.616C283.993 149.526 283.939 149.448 283.915 149.364C283.83 149.075 283.74 148.799 283.644 148.516C283.548 148.234 283.422 147.855 283.302 147.525C283.182 147.194 283.068 146.924 282.948 146.623C282.798 146.227 282.618 145.83 282.443 145.421C282.42 145.38 282.402 145.335 282.389 145.289C282.389 145.289 282.389 145.259 282.353 145.235C282.035 144.532 281.687 143.817 281.303 143.114C281.159 142.825 281.002 142.549 280.84 142.266C280.63 141.888 280.42 141.515 280.192 141.142C279.964 140.77 279.681 140.361 279.429 139.977C279.309 139.778 279.189 139.58 279.057 139.376L278.925 139.177C278.903 139.142 278.876 139.11 278.847 139.081C277.934 137.739 276.952 136.445 275.905 135.205C275.839 135.121 275.761 135.043 275.695 134.965C275.208 134.364 274.716 133.829 274.2 133.294C274.13 133.208 274.054 133.128 273.971 133.054C273.707 132.777 273.443 132.501 273.167 132.224C272.891 131.948 272.53 131.587 272.2 131.281C271.702 130.818 271.209 130.355 270.693 129.904C269.804 129.135 268.892 128.406 267.955 127.717L267.409 127.32C266.399 126.593 265.352 125.917 264.274 125.295C263.908 125.085 263.56 124.898 263.206 124.694C262.851 124.49 262.413 124.285 262.005 124.093C261.735 123.961 261.458 123.841 261.194 123.721L260.852 123.564L260.444 123.402C259.711 123.096 258.985 122.801 258.27 122.609C258.242 122.602 258.214 122.598 258.186 122.597L257.922 122.531C257.802 122.483 257.682 122.465 257.574 122.428C257.465 122.392 257.273 122.338 257.135 122.308H257.099L256.805 122.242C256.541 122.176 256.295 122.122 256.042 122.08C255.904 122.044 255.748 122.026 255.604 122.002C255.578 121.996 255.552 121.996 255.526 122.002L254.992 121.912H254.866C254.535 121.864 254.202 121.834 253.869 121.821C253.658 121.798 253.445 121.786 253.232 121.785H252.914C252.589 121.783 252.265 121.799 251.941 121.834H251.881H251.635C251.533 121.839 251.43 121.851 251.329 121.87C251.236 121.877 251.144 121.891 251.053 121.912H251.023C250.945 121.912 250.867 121.948 250.789 121.954C250.603 121.99 250.416 122.02 250.23 122.074C250.2 122.069 250.17 122.069 250.14 122.074C250.088 122.074 250.037 122.087 249.99 122.11C249.855 122.139 249.722 122.179 249.594 122.23C249.49 122.251 249.388 122.279 249.288 122.314C249.288 122.314 249.252 122.314 249.24 122.314C249.228 122.314 249.24 122.314 249.24 122.314C249.018 122.389 248.802 122.477 248.591 122.579L248.513 122.609C248.373 122.672 248.237 122.742 248.105 122.819C248.013 122.855 247.924 122.899 247.841 122.951L252.326 120.343C252.776 120.085 253.248 119.867 253.737 119.694C253.754 119.689 253.773 119.689 253.791 119.694V119.694C254.183 119.556 254.584 119.446 254.992 119.364L255.124 119.327H255.274C255.55 119.273 255.838 119.243 256.12 119.207H256.307H256.367C256.703 119.207 257.045 119.165 257.405 119.165H257.586C257.862 119.165 258.138 119.165 258.426 119.165H258.468C258.612 119.165 258.762 119.201 258.906 119.207L259.471 119.267H259.525C259.711 119.267 259.897 119.333 260.095 119.358C260.293 119.382 260.372 119.4 260.51 119.436H260.558C260.888 119.502 261.224 119.58 261.578 119.664C261.909 119.742 262.245 119.838 262.575 119.94C262.593 119.935 262.612 119.935 262.629 119.94C262.746 119.97 262.86 120.009 262.971 120.055C263.194 120.121 263.404 120.187 263.608 120.265C263.65 120.273 263.69 120.288 263.728 120.307C263.872 120.349 264.012 120.401 264.148 120.463C264.31 120.529 264.478 120.583 264.653 120.65C264.716 120.683 264.783 120.711 264.851 120.734L265.301 120.932C265.433 120.986 265.565 121.034 265.697 121.1C265.801 121.141 265.901 121.189 265.998 121.245C266.158 121.307 266.314 121.379 266.466 121.461C266.568 121.503 266.664 121.551 266.766 121.605C266.868 121.659 267.042 121.737 267.168 121.803C267.295 121.87 267.481 121.966 267.631 122.056C267.708 122.085 267.783 122.121 267.853 122.164L268.712 122.639C268.796 122.693 268.886 122.735 268.964 122.795C269.348 123.011 269.72 123.246 270.093 123.486C270.285 123.594 270.471 123.727 270.657 123.847C270.748 123.916 270.842 123.98 270.939 124.039L271.227 124.231C271.612 124.496 271.984 124.76 272.362 125.037L272.71 125.313C272.819 125.391 272.933 125.463 273.041 125.553C273.149 125.644 273.347 125.788 273.503 125.92C273.899 126.215 274.272 126.521 274.656 126.852L274.776 126.96C274.85 127.019 274.92 127.083 274.986 127.152C275.25 127.368 275.514 127.591 275.779 127.831C276.043 128.072 276.349 128.348 276.625 128.624C276.681 128.666 276.731 128.715 276.775 128.769C276.806 128.784 276.833 128.807 276.853 128.835C277.206 129.167 277.548 129.504 277.88 129.844L278.403 130.397C278.481 130.469 278.559 130.56 278.637 130.638C278.715 130.716 278.769 130.77 278.835 130.848C279.129 131.166 279.435 131.509 279.723 131.834C279.868 131.99 280 132.158 280.132 132.308L280.33 132.549C280.408 132.639 280.492 132.729 280.558 132.813C280.858 133.168 281.129 133.51 281.405 133.859C281.507 133.991 281.603 134.123 281.711 134.255C281.819 134.388 281.879 134.466 281.957 134.574L282.275 134.995C282.54 135.355 282.792 135.734 283.056 136.094L283.35 136.521L283.428 136.635C283.584 136.852 283.716 137.098 283.866 137.314C284.155 137.777 284.467 138.228 284.725 138.679L284.827 138.847C285.145 139.364 285.428 139.892 285.716 140.415C285.716 140.463 285.758 140.505 285.782 140.548C285.813 140.602 285.842 140.658 285.866 140.716C285.998 140.968 286.13 141.209 286.256 141.461C286.382 141.713 286.508 141.972 286.628 142.224C286.695 142.362 286.749 142.507 286.815 142.639C286.837 142.681 286.855 142.725 286.869 142.771C286.905 142.837 286.935 142.915 286.971 142.981C287.079 143.222 287.175 143.456 287.277 143.697C287.379 143.937 287.463 144.159 287.559 144.388C287.607 144.508 287.649 144.634 287.691 144.754C287.702 144.796 287.718 144.837 287.739 144.874C287.763 144.948 287.791 145.02 287.823 145.091C287.901 145.337 287.991 145.566 288.069 145.8C288.148 146.034 288.22 146.269 288.286 146.503C288.322 146.611 288.352 146.719 288.388 146.834C288.424 146.948 288.388 146.912 288.418 146.954C288.448 147.036 288.474 147.121 288.496 147.206C288.562 147.447 288.628 147.681 288.682 147.909C288.736 148.138 288.79 148.36 288.838 148.582C288.838 148.679 288.88 148.793 288.904 148.889C288.901 148.923 288.901 148.957 288.904 148.991C288.904 149.075 288.94 149.165 288.952 149.243C288.994 149.46 289.03 149.682 289.072 149.893C289.114 150.103 289.126 150.307 289.162 150.494C289.198 150.68 289.162 150.746 289.192 150.878C289.198 150.904 289.198 150.931 289.192 150.956C289.195 151.008 289.195 151.06 289.192 151.112C289.192 151.311 289.228 151.515 289.24 151.713C289.252 151.912 289.324 152.176 289.336 152.363Z" fill="#323944"/>
<path d="M284.863 155.524L284.833 167.976V175.878C282.149 175.878 279.856 174.917 278.829 173.564V170.277L278.883 152.056C278.883 145.896 272.2 136.81 264.25 132.224C260.678 130.157 257.351 129.291 254.763 129.532C253.838 129.597 252.936 129.855 252.116 130.289C252.073 130.316 252.033 130.346 251.995 130.379C251.863 130.446 251.738 130.526 251.623 130.62C251.486 130.714 251.357 130.82 251.239 130.938C251.187 130.968 251.141 131.009 251.107 131.058C250.983 131.163 250.872 131.282 250.777 131.413C250.666 131.53 250.57 131.659 250.488 131.797C250.488 131.797 250.488 131.797 250.458 131.797C250.358 131.944 250.269 132.099 250.194 132.26C250.138 132.35 250.094 132.447 250.062 132.549C250.017 132.624 249.983 132.705 249.96 132.789C249.954 132.807 249.954 132.826 249.96 132.843C249.909 132.962 249.869 133.084 249.84 133.21C249.803 133.324 249.773 133.44 249.75 133.558C249.727 133.645 249.709 133.734 249.696 133.823C249.623 134.241 249.585 134.666 249.582 135.091V147.663V155.566C246.934 155.566 244.646 154.652 243.577 153.33V149.886L243.535 131.611C243.535 127.332 245.229 124.352 248.039 122.867C248.171 122.79 248.307 122.72 248.447 122.657V122.657L248.525 122.627C248.735 122.525 248.952 122.437 249.173 122.362C249.173 122.362 249.173 122.362 249.173 122.362C249.288 122.315 249.407 122.279 249.528 122.254C249.656 122.203 249.789 122.163 249.924 122.134C249.971 122.111 250.022 122.098 250.074 122.098C250.104 122.093 250.134 122.093 250.164 122.098L250.44 122.038C250.533 122.012 250.627 121.992 250.723 121.978V121.978C250.801 121.978 250.879 121.948 250.957 121.936H250.987C251.078 121.915 251.17 121.901 251.263 121.894C251.364 121.875 251.466 121.863 251.569 121.858C251.671 121.848 251.774 121.848 251.875 121.858C252.198 121.823 252.523 121.807 252.848 121.809H253.166C253.379 121.81 253.591 121.822 253.803 121.845C254.136 121.858 254.469 121.888 254.8 121.936C255.021 121.955 255.242 121.988 255.46 122.032C255.486 122.026 255.512 122.026 255.538 122.032C255.682 122.032 255.838 122.074 255.976 122.11C256.229 122.152 256.475 122.206 256.739 122.272C257.003 122.338 257.243 122.392 257.507 122.47C257.616 122.507 257.736 122.525 257.856 122.573L258.21 122.669C258.924 122.891 259.651 123.156 260.384 123.462C260.642 123.558 260.882 123.672 261.134 123.781C261.386 123.889 261.674 124.021 261.945 124.153L262.653 124.508C262.803 124.592 262.971 124.67 263.122 124.748C263.476 124.946 263.824 125.133 264.19 125.349C265.268 125.971 266.314 126.647 267.325 127.374L267.871 127.771C268.808 128.46 269.72 129.189 270.609 129.959C271.125 130.409 271.618 130.872 272.116 131.335C272.446 131.641 272.764 131.936 273.083 132.278C273.401 132.621 273.623 132.831 273.887 133.108C273.969 133.182 274.046 133.262 274.115 133.348C274.632 133.883 275.124 134.448 275.611 135.019C275.677 135.097 275.755 135.175 275.821 135.259C276.868 136.499 277.85 137.793 278.763 139.135C278.84 139.228 278.91 139.327 278.973 139.43V139.43C279.369 140.031 279.742 140.596 280.108 141.191C280.336 141.563 280.546 141.936 280.756 142.314C280.918 142.597 281.074 142.873 281.219 143.162C281.603 143.865 281.951 144.58 282.269 145.283C282.305 145.349 282.335 145.415 282.359 145.469C282.534 145.866 282.714 146.263 282.864 146.671C282.984 146.966 283.104 147.272 283.218 147.573C283.332 147.873 283.458 148.234 283.56 148.564C283.662 148.895 283.746 149.123 283.83 149.412C283.83 149.496 283.884 149.574 283.909 149.664C284.095 150.313 284.263 150.962 284.383 151.599C284.389 151.635 284.389 151.672 284.383 151.707C284.443 151.96 284.485 152.224 284.527 152.477C284.527 152.525 284.527 152.579 284.527 152.621C284.581 152.951 284.623 153.27 284.659 153.6C284.764 154.237 284.832 154.879 284.863 155.524V155.524Z" fill="#3A4151"/>
<path d="M203.577 74.3032C203.878 74.5016 204.128 74.7682 204.308 75.0814C204.487 75.3946 204.59 75.7456 204.609 76.1061L204.525 106.112C204.525 108.757 202.64 109.832 200.322 108.516L171.123 91.617C169.912 90.8268 168.904 89.762 168.181 88.509C167.458 87.2561 167.041 85.8502 166.962 84.4055L167.046 54.3993C167.046 53.7382 167.521 53.4678 168.091 53.7983L171.225 55.6012V50.7935C171.225 41.5266 177.83 37.7766 185.882 42.4341C193.934 47.0916 200.472 58.4137 200.442 67.6746V72.4823L203.577 74.3032ZM194.18 68.8946V64.0868C194.18 58.7863 190.463 52.32 185.864 49.6637C181.264 47.0074 177.5 49.1469 177.488 54.4414V59.2491L194.186 68.8645L194.18 68.8946ZM188.896 90.9199L188.253 83.7083C189.328 83.4319 189.971 82.3862 189.971 80.8357C189.894 79.3904 189.478 77.9837 188.755 76.7303C188.031 75.477 187.022 74.4126 185.81 73.6242C183.51 72.296 181.607 73.3657 181.607 76.028C181.674 77.7767 182.266 79.4646 183.306 80.8718L182.627 87.3021C182.606 87.6794 182.694 88.0548 182.88 88.3838C183.061 88.7314 183.33 89.0256 183.66 89.2372L187.863 91.6411C187.975 91.7227 188.108 91.7707 188.246 91.7792C188.385 91.7877 188.523 91.7565 188.644 91.6891C188.752 91.5929 188.833 91.4704 188.879 91.3334C188.925 91.1965 188.935 91.0499 188.908 90.9079" fill="#D5D7E2"/>
<path d="M201.397 140.289C201.844 140.572 202.218 140.957 202.487 141.412C202.756 141.868 202.914 142.381 202.946 142.909V147.116C202.946 148.078 202.256 148.468 201.421 147.987L166.92 128.066C166.479 127.778 166.111 127.39 165.848 126.934C165.584 126.478 165.431 125.966 165.401 125.439V121.233C165.401 120.265 166.092 119.88 166.926 120.367L201.397 140.289Z" fill="#D5D7E2"/>
</g>
<defs>
<clipPath id="clip0_80_44">
<rect width="300" height="234.586" fill="white"/>
</clipPath>
</defs>
</svg>
