<svg width="180" height="180" viewBox="0 0 180 180" fill="none" xmlns="http://www.w3.org/2000/svg">
<g filter="url(#filter0_d_116_63)">
<path d="M118.125 16.875H61.875V45H118.125V16.875Z" stroke="white" stroke-width="5" stroke-linecap="round" stroke-linejoin="round"/>
<path d="M118.125 28.125H140.625C142.117 28.125 143.548 28.7176 144.602 29.7725C145.657 30.8274 146.25 32.2582 146.25 33.75V151.875C146.25 153.367 145.657 154.798 144.602 155.852C143.548 156.907 142.117 157.5 140.625 157.5H39.375C37.8832 157.5 36.4524 156.907 35.3975 155.852C34.3426 154.798 33.75 153.367 33.75 151.875V33.75C33.75 32.2582 34.3426 30.8274 35.3975 29.7725C36.4524 28.7176 37.8832 28.125 39.375 28.125H61.875" stroke="white" stroke-width="5" stroke-linecap="round" stroke-linejoin="round"/>
<path d="M67.5 106.875H112.5" stroke="white" stroke-width="5" stroke-linecap="round" stroke-linejoin="round"/>
<path d="M67.5 84.375H112.5" stroke="white" stroke-width="5" stroke-linecap="round" stroke-linejoin="round"/>
</g>
<defs>
<filter id="filter0_d_116_63" x="27.25" y="14.375" width="125.5" height="153.625" filterUnits="userSpaceOnUse" color-interpolation-filters="sRGB">
<feFlood flood-opacity="0" result="BackgroundImageFix"/>
<feColorMatrix in="SourceAlpha" type="matrix" values="0 0 0 0 0 0 0 0 0 0 0 0 0 0 0 0 0 0 127 0" result="hardAlpha"/>
<feOffset dy="4"/>
<feGaussianBlur stdDeviation="2"/>
<feColorMatrix type="matrix" values="0 0 0 0 0 0 0 0 0 0 0 0 0 0 0 0 0 0 0.25 0"/>
<feBlend mode="normal" in2="BackgroundImageFix" result="effect1_dropShadow_116_63"/>
<feBlend mode="normal" in="SourceGraphic" in2="effect1_dropShadow_116_63" result="shape"/>
</filter>
</defs>
</svg>
