<svg width="370" height="418" viewBox="0 0 370 418" fill="none" xmlns="http://www.w3.org/2000/svg">
<g clip-path="url(#clip0_40_44)">
<path d="M370 199.855L369.983 207.348L295.02 250.897L295.045 243.404L370 199.855Z" fill="#D3D3DD"/>
<path d="M295.045 243.404L295.02 250.897L219.573 207.348L219.598 199.855L295.045 243.404Z" fill="#E0DEE9"/>
<path d="M370 199.855L295.045 243.404L219.598 199.855L294.553 156.297L370 199.855Z" fill="#6E6E9C"/>
<path d="M358.307 86.2719L357.99 198.695L294.903 235.351L295.22 122.928L358.307 86.2719Z" fill="#D3D3DD"/>
<path d="M295.221 122.928L294.904 235.351L231.399 198.695L231.717 86.2719L295.221 122.928Z" fill="#E0DEE9"/>
<path d="M358.307 86.2719L295.22 122.928L231.716 86.2719L294.812 49.6237L358.307 86.2719Z" fill="#6E6E9C"/>
<path d="M248.083 135.428L248.058 147.085L237.917 141.236L237.951 129.579L248.083 135.428Z" fill="#2A313F"/>
<path d="M248.133 119.224L248.099 130.872L237.959 125.015L237.992 113.366L248.133 119.224Z" fill="#2A313F"/>
<path d="M248.183 103.002L248.141 114.659L238.009 108.81L238.034 97.1529L248.183 103.002Z" fill="#2A313F"/>
<path d="M289.061 175.322L289.028 186.979L252.64 165.977L252.673 154.32L289.061 175.322Z" fill="#2A313F"/>
<path d="M289.103 159.109L289.078 170.766L252.689 149.764L252.723 138.107L289.103 159.109Z" fill="#2A313F"/>
<path d="M289.153 142.896L289.12 154.545L252.731 133.542L252.773 121.894L289.153 142.896Z" fill="#2A313F"/>
<path d="M289.195 126.683L289.17 138.34L252.781 117.338L252.815 105.681L289.195 126.683Z" fill="#2A313F"/>
<path d="M247.991 167.854L247.966 179.511L237.826 173.662L237.859 162.005L247.991 167.854Z" fill="#2A313F"/>
<path d="M248.041 151.65L248.008 163.307L237.867 157.449L237.901 145.792L248.041 151.65Z" fill="#2A313F"/>
<path d="M289.011 191.535L288.978 203.192L252.598 182.19L252.632 170.533L289.011 191.535Z" fill="#2A313F"/>
<path d="M311.236 137.172L311.269 148.829L301.121 154.687L301.087 143.03L311.236 137.172Z" fill="#2A313F"/>
<path d="M311.186 120.951L311.22 132.608L301.079 138.466L301.046 126.809L311.186 120.951Z" fill="#2A313F"/>
<path d="M352.39 162.138L352.424 173.787L316.035 194.79L316.002 183.141L352.39 162.138Z" fill="#2A313F"/>
<path d="M352.34 145.925L352.373 157.582L315.993 178.577L315.96 166.928L352.34 145.925Z" fill="#2A313F"/>
<path d="M352.298 129.712L352.332 141.361L315.944 162.364L315.91 150.715L352.298 129.712Z" fill="#2A313F"/>
<path d="M352.248 113.491L352.281 125.148L315.902 146.151L315.868 134.494L352.248 113.491Z" fill="#2A313F"/>
<path d="M352.207 97.278L352.24 108.935L315.852 129.938L315.818 118.281L352.207 97.278Z" fill="#2A313F"/>
<path d="M311.37 185.811L311.411 197.46L301.263 203.318L301.229 191.669L311.37 185.811Z" fill="#2A313F"/>
<path d="M311.328 169.598L311.362 181.255L301.213 187.113L301.188 175.456L311.328 169.598Z" fill="#2A313F"/>
<path d="M311.286 153.385L311.311 165.034L301.171 170.892L301.138 159.243L311.286 153.385Z" fill="#2A313F"/>
<path d="M358.015 189.625L357.99 198.695L294.904 235.351L294.87 226.073L358.015 189.625Z" fill="#9052FE"/>
<path d="M294.929 226.073L294.904 235.351L231.399 198.695L231.424 189.416L294.929 226.073Z" fill="#9052FE"/>
<path d="M294.511 87.7655H295.229L298.834 89.8516C296.255 90.6318 293.502 90.6318 290.922 89.8516L294.511 87.7655Z" fill="#2A313F"/>
<path d="M278.829 74.5481C288.01 70.1006 301.513 70.1006 310.761 74.5481L307.506 76.4423C300.07 73.0211 289.495 73.0211 282.109 76.4423L278.829 74.5481Z" fill="#2A313F"/>
<path d="M284.413 77.769C291.083 75.057 298.549 75.057 305.219 77.769L301.939 79.6715C297.348 77.9696 292.3 77.9696 287.709 79.6715L284.413 77.769Z" fill="#2A313F"/>
<path d="M290.872 81.4989C293.457 80.7144 296.216 80.7144 298.801 81.4989L295.212 83.585C294.967 83.5683 294.722 83.5683 294.478 83.585L290.872 81.4989Z" fill="#2A313F"/>
<path d="M298.509 85.8797C298.525 85.7411 298.525 85.6011 298.509 85.4625L302.098 83.3847C302.417 83.6749 302.672 84.0285 302.846 84.423C303.021 84.8174 303.111 85.244 303.111 85.6753C303.111 86.1066 303.021 86.5331 302.846 86.9276C302.672 87.322 302.417 87.6756 302.098 87.9658L298.509 85.8797Z" fill="#2A313F"/>
<path d="M305.244 89.7932C308.165 87.2899 308.157 84.0273 305.202 81.5574L308.524 79.6465C313.223 83.1928 313.248 88.1577 308.591 91.704L305.244 89.7932Z" fill="#2A313F"/>
<path d="M284.471 81.5574C281.541 84.0607 281.566 87.3233 284.521 89.7932L281.241 91.704C276.542 88.1577 276.509 83.1928 281.166 79.6465L284.471 81.5574Z" fill="#2A313F"/>
<path d="M310.853 93.0308C316.695 88.7418 316.695 82.6087 310.769 78.3198L314.024 76.4256C321.719 81.766 321.769 89.5763 314.124 94.9166L310.853 93.0308Z" fill="#2A313F"/>
<path d="M282.209 94.9166C289.637 98.3294 300.228 98.3294 307.614 94.9166L310.886 96.8024C301.706 101.25 288.202 101.25 278.963 96.8024L282.209 94.9166Z" fill="#2A313F"/>
<path d="M278.871 78.3198C272.987 82.6087 273.029 88.7335 278.954 93.0308L275.7 94.9166C267.988 89.5762 267.955 81.766 275.591 76.4339L278.871 78.3198Z" fill="#2A313F"/>
<path d="M287.784 91.679C292.362 93.3728 297.395 93.3728 301.972 91.679L305.311 93.5815C298.638 96.2931 291.169 96.2931 284.496 93.5815L287.784 91.679Z" fill="#2A313F"/>
<path d="M291.24 85.4625C291.219 85.6036 291.219 85.747 291.24 85.888L287.659 87.9658C287.338 87.677 287.081 87.3238 286.905 86.9292C286.729 86.5346 286.638 86.1073 286.638 85.6753C286.638 85.2432 286.729 84.8159 286.905 84.4213C287.081 84.0267 287.338 83.6735 287.659 83.3847L291.24 85.4625Z" fill="#2A313F"/>
<path d="M260.051 263.505L260.026 270.998L185.071 314.556L185.087 307.062L260.051 263.505Z" fill="#D3D3DD"/>
<path d="M185.087 307.062L185.071 314.556L109.624 271.007L109.64 263.505L185.087 307.062Z" fill="#E0DEE9"/>
<path d="M260.051 263.505L185.088 307.062L109.641 263.505L184.604 219.956L260.051 263.505Z" fill="#6E6E9C"/>
<path d="M248.358 149.931L248.033 262.354L184.946 299.002L185.271 186.587L248.358 149.931Z" fill="#D3D3DD"/>
<path d="M185.271 186.587L184.946 299.002L121.45 262.345L121.767 149.931L185.271 186.587Z" fill="#E0DEE9"/>
<path d="M248.358 149.931L185.271 186.587L121.767 149.931L184.854 113.274L248.358 149.931Z" fill="#6E6E9C"/>
<path d="M138.134 199.087L138.1 210.744L127.96 204.886L127.993 193.229L138.134 199.087Z" fill="#2A313F"/>
<path d="M138.183 182.874L138.15 194.523L128.01 188.673L128.043 177.025L138.183 182.874Z" fill="#2A313F"/>
<path d="M138.225 166.661L138.192 178.318L128.051 172.46L128.085 160.803L138.225 166.661Z" fill="#2A313F"/>
<path d="M179.104 238.981L179.07 250.638L142.69 229.636L142.724 217.979L179.104 238.981Z" fill="#2A313F"/>
<path d="M179.154 222.768L179.12 234.425L142.74 213.414L142.765 201.766L179.154 222.768Z" fill="#2A313F"/>
<path d="M179.204 206.555L179.17 218.204L142.782 197.201L142.816 185.553L179.204 206.555Z" fill="#2A313F"/>
<path d="M179.245 190.334L179.212 201.991L142.832 180.988L142.865 169.34L179.245 190.334Z" fill="#2A313F"/>
<path d="M138.042 231.513L138.008 243.17L127.868 237.312L127.902 225.664L138.042 231.513Z" fill="#2A313F"/>
<path d="M138.092 215.3L138.058 226.957L127.918 221.108L127.951 209.451L138.092 215.3Z" fill="#2A313F"/>
<path d="M179.062 255.194L179.028 266.851L142.648 245.849L142.682 234.192L179.062 255.194Z" fill="#2A313F"/>
<path d="M201.287 200.823L201.32 212.48L191.172 218.337L191.138 206.68L201.287 200.823Z" fill="#2A313F"/>
<path d="M201.237 184.61L201.27 196.267L191.122 202.124L191.088 190.467L201.237 184.61Z" fill="#2A313F"/>
<path d="M242.433 225.797L242.466 237.446L206.086 258.449L206.053 246.8L242.433 225.797Z" fill="#2A313F"/>
<path d="M242.391 209.576L242.424 221.233L206.036 242.235L206.002 230.578L242.391 209.576Z" fill="#2A313F"/>
<path d="M242.341 193.371L242.374 205.02L205.994 226.022L205.961 214.365L242.341 193.371Z" fill="#2A313F"/>
<path d="M242.299 177.15L242.332 188.807L205.944 209.809L205.911 198.152L242.299 177.15Z" fill="#2A313F"/>
<path d="M242.249 160.937L242.282 172.594L205.903 193.588L205.869 181.931L242.249 160.937Z" fill="#2A313F"/>
<path d="M201.421 249.47L201.454 261.119L191.305 266.976L191.28 255.328L201.421 249.47Z" fill="#2A313F"/>
<path d="M201.379 233.249L201.404 244.906L191.263 250.763L191.23 239.106L201.379 233.249Z" fill="#2A313F"/>
<path d="M201.329 217.044L201.362 228.693L191.222 234.55L191.18 222.902L201.329 217.044Z" fill="#2A313F"/>
<path d="M248.066 253.283L248.041 262.345L184.954 299.002L184.929 289.723L248.066 253.283Z" fill="#9052FE"/>
<path d="M184.979 289.723L184.954 299.002L121.45 262.345L121.475 253.066L184.979 289.723Z" fill="#9052FE"/>
<path d="M184.562 151.416C184.798 151.433 185.035 151.433 185.271 151.416L188.885 153.502C186.306 154.286 183.552 154.286 180.973 153.502L184.562 151.416Z" fill="#2A313F"/>
<path d="M168.88 138.207C178.06 133.759 191.556 133.759 200.811 138.207L197.556 140.093C190.12 136.672 179.538 136.672 172.151 140.093L168.88 138.207Z" fill="#2A313F"/>
<path d="M174.455 141.419C181.13 138.716 188.595 138.716 195.27 141.419L191.99 143.33C187.397 141.628 182.345 141.628 177.752 143.33L174.455 141.419Z" fill="#2A313F"/>
<path d="M180.923 145.191C183.505 144.407 186.261 144.407 188.843 145.191L185.263 147.269H184.528L180.923 145.191Z" fill="#2A313F"/>
<path d="M188.518 149.539C188.534 149.4 188.534 149.26 188.518 149.121L192.106 147.035C192.424 147.326 192.678 147.68 192.852 148.074C193.026 148.469 193.116 148.895 193.116 149.326C193.116 149.757 193.026 150.183 192.852 150.577C192.678 150.972 192.424 151.325 192.106 151.616L188.518 149.539Z" fill="#2A313F"/>
<path d="M195.295 153.452C198.216 150.949 198.199 147.678 195.253 145.208L198.525 143.305C203.223 146.843 203.257 151.816 198.6 155.354L195.295 153.452Z" fill="#2A313F"/>
<path d="M174.513 145.191C171.592 147.694 171.617 150.965 174.564 153.435L171.284 155.338C166.585 151.8 166.56 146.827 171.217 143.289L174.513 145.191Z" fill="#2A313F"/>
<path d="M200.861 156.681C206.703 152.401 206.703 146.268 200.778 141.979L204.033 140.084C211.736 145.425 211.786 153.235 204.133 158.575L200.861 156.681Z" fill="#2A313F"/>
<path d="M172.26 158.542C179.679 161.955 190.27 161.955 197.656 158.542L200.928 160.428C191.748 164.875 178.252 164.875 169.005 160.428L172.26 158.542Z" fill="#2A313F"/>
<path d="M168.913 141.979C163.071 146.259 163.071 152.392 168.997 156.681L165.75 158.542C158.038 153.202 157.997 145.391 165.642 140.051L168.913 141.979Z" fill="#2A313F"/>
<path d="M177.827 155.329C182.404 157.023 187.437 157.023 192.015 155.329L195.353 157.24C188.683 159.952 181.217 159.952 174.547 157.24L177.827 155.329Z" fill="#2A313F"/>
<path d="M181.29 149.121C181.265 149.259 181.265 149.401 181.29 149.539L177.702 151.625C177.381 151.334 177.125 150.98 176.949 150.585C176.774 150.19 176.684 149.762 176.684 149.33C176.684 148.898 176.774 148.47 176.949 148.075C177.125 147.68 177.381 147.325 177.702 147.035L181.29 149.121Z" fill="#2A313F"/>
<g opacity="0.4">
<g opacity="0.4">
<path opacity="0.4" d="M319.774 382.428C321.327 378.256 315.877 372.357 307.598 369.286C299.319 366.215 291.348 367.15 289.796 371.322C288.243 375.494 293.693 381.394 301.973 384.473C310.252 387.552 318.214 386.634 319.774 382.445" fill="#D6D8E5"/>
</g>
</g>
<g opacity="0.4">
<g opacity="0.4">
<path opacity="0.4" d="M205.185 313.212C207.255 317.71 216.126 318.052 225.015 313.98C233.903 309.908 239.428 302.957 237.367 298.459C235.305 293.962 226.434 293.62 217.545 297.692C208.657 301.764 203.123 308.715 205.185 313.212Z" fill="#D6D8E5"/>
</g>
</g>
<path d="M304.493 274.411C305.252 273.185 311.061 272.383 312.972 277.307C313.698 279.176 313.59 283.982 314.199 286.944C314.808 289.907 316.227 291.642 316.744 294.079C317.262 296.515 316.419 300.587 310.56 301.305C304.701 302.022 300.186 299.97 298.801 298.101C297.415 296.232 297.382 292.26 298.801 290.123C300.219 287.987 301.304 286.26 301.304 283.448L304.493 274.411Z" fill="#3A2C6D"/>
<path d="M308.332 273.56C308.332 273.56 303.95 272.3 301.296 274.661C300.422 275.469 299.786 276.5 299.457 277.642C299.127 278.785 299.117 279.997 299.427 281.145C299.785 282.53 300.487 284.416 301.588 284.483C302.69 284.549 308.332 273.527 308.332 273.527" fill="#3A2C6D"/>
<path d="M310.001 285.492C310.001 285.492 309.717 290.374 309.801 290.733C309.884 291.091 311.721 291.434 312.23 291.859C312.739 292.285 309.576 297.233 307.965 297.967C306.354 298.701 301.38 296.824 301.029 294.346C300.712 292.068 302.457 290.29 303.133 289.673C303.588 289.642 304.046 289.642 304.501 289.673L304.651 287.311C306.83 286.611 310.001 285.526 310.001 285.526" fill="#FFCEA9"/>
<path d="M298.208 294.705C298.208 294.571 297.474 294.963 297.457 294.972C297.441 294.98 297.115 307.488 296.498 308.623C294.937 311.276 290.797 315.774 290.697 316.275C290.397 317.793 291.273 316.433 292.692 316.275C293.526 316.174 298.192 311.418 299.252 310.333L299.318 310.375C299.318 310.333 299.318 310.292 299.318 310.25L299.46 310.108C299.485 309.772 299.485 309.435 299.46 309.098C301.405 295.522 299.001 294.613 298.158 294.713" fill="#FFCEA9"/>
<path d="M310.669 291.217C312.038 291.434 313.607 292.16 313.824 292.886C314.388 295.589 314.253 298.392 313.432 301.03C312.247 304.167 311.445 306.161 310.761 307.513C310.761 307.513 304.835 310.016 300.053 307.096C300.053 307.096 299.728 303.758 299.703 301.931C295.288 298.084 299.06 293.336 302.799 289.648C303.249 289.61 303.701 289.61 304.151 289.648C304.151 289.648 300.813 293.586 303.133 295.831C308.099 294.329 309.083 292.101 310.644 291.208" fill="#F4F4F4"/>
<path d="M300.888 279.451C301.38 276.322 303.65 273.952 306.88 274.144C308.179 274.217 309.422 274.695 310.434 275.512C311.446 276.329 312.176 277.443 312.521 278.696C312.865 279.95 312.808 281.281 312.356 282.5C311.904 283.72 311.08 284.766 310.001 285.492C309.891 285.967 309.722 286.427 309.501 286.861C308.357 288.196 305.328 289.039 304.318 289.055C303.483 289.055 302.699 288.221 301.889 286.911C300.22 284.107 300.621 280.995 300.888 279.451Z" fill="#FFCEA9"/>
<path d="M307.881 274.194C310.143 274.645 312.013 275.279 312.622 277.532C313.047 279.059 313.598 281.988 313.072 283.214L312.747 284.107L310.001 285.517C310.001 285.517 308.724 284.449 309.116 281.345C309.106 280.921 308.973 280.51 308.733 280.16C308.561 279.866 308.435 279.549 308.357 279.217C308.032 278.372 307.396 277.682 306.579 277.29C304.535 276.147 301.572 277.14 301.121 277.549C301.693 276.3 302.677 275.287 303.908 274.679C305.139 274.071 306.542 273.906 307.881 274.211" fill="#3A2C6D"/>
<path d="M312.004 373.283C310.861 374.218 309.075 373.575 308.983 373.658C307.652 374.805 306.259 375.877 304.81 376.871C304.092 377.43 302.982 378.181 303.182 379.266C303.541 381.193 306.638 380.601 307.806 380.008C308.975 379.416 309.926 378.44 311.028 377.756C311.821 377.263 312.597 377.013 312.697 376.012C312.772 375.411 312.213 373.266 312.012 373.283" fill="#38226D"/>
<path d="M312.697 375.611C312.538 376.571 311.779 376.829 311.028 377.28C309.901 377.981 308.916 378.949 307.748 379.575C306.579 380.2 303.984 380.668 303.224 379.283C303.633 381.152 306.671 380.559 307.831 379.975C308.991 379.391 309.951 378.406 311.053 377.722C311.845 377.23 312.622 376.979 312.722 375.978C312.738 375.845 312.738 375.711 312.722 375.578" fill="#9C73FF"/>
<path d="M303.959 371.681C302.907 372.515 301.321 372.056 301.238 372.131C300.013 373.177 298.731 374.155 297.399 375.06C296.748 375.569 295.729 376.262 295.905 377.255C296.239 379.024 299.076 378.481 300.144 377.939C301.213 377.397 302.089 376.496 303.099 375.87C303.817 375.419 304.526 375.185 304.643 374.276C304.609 373.371 304.375 372.485 303.959 371.681" fill="#38226D"/>
<path d="M304.626 373.909C304.484 374.743 303.792 375.027 303.074 375.469C302.039 376.103 301.138 377.03 300.069 377.572C299.001 378.114 296.614 378.565 295.896 377.305C296.272 378.974 299.06 378.473 300.12 377.939C301.179 377.405 302.056 376.496 303.074 375.87C303.792 375.419 304.501 375.185 304.618 374.276C304.629 374.154 304.629 374.031 304.618 373.909" fill="#9C73FF"/>
<path d="M297.774 318.319C298.275 314.364 299.736 308.623 299.736 308.623C301.113 309.269 302.605 309.637 304.125 309.708C306.352 309.699 308.573 309.484 310.76 309.065C311.475 310.313 312.255 311.521 313.097 312.687C314.241 314.264 316.436 317.693 315.927 323.793C315.576 327.756 313.356 344.57 313.356 344.57C314.218 347.398 314.676 350.334 314.716 353.29C314.508 356.801 314.045 360.293 313.331 363.737L312.004 373.283C312.004 373.283 310.243 374.56 308.983 373.658L309.141 364.321C308.991 362.035 308.766 358.655 308.624 356.503C308.382 352.998 307.789 347.424 307.572 346.039C307.355 344.654 306.946 342.217 306.738 339.489C306.529 336.76 305.494 322.925 305.494 322.925L305.352 325.52C305.352 325.52 305.219 329.692 304.61 334.916C304 340.139 303.775 342.426 303.775 342.426C304.346 343.468 304.746 344.595 304.96 345.763C305.069 346.89 306.354 355.777 305.586 360.283L304.009 371.764C303.617 372.034 303.167 372.207 302.696 372.269C302.224 372.332 301.745 372.282 301.296 372.123L300.37 360.55C299.744 356.144 298.434 346.815 298.225 345.597C297.784 343.152 297.522 340.678 297.44 338.195C297.14 333.189 297.248 322.274 297.758 318.319" fill="#FFCEA9"/>
<path d="M310.761 307.521L314.166 314.364C314.166 314.364 319.365 321.974 313.982 341.525L314.992 347.557C314.992 347.557 304.793 354.099 297.975 347.557C297.975 347.557 295.605 329.492 296.865 321.156C297.563 316.354 298.626 311.612 300.045 306.971C300.045 306.971 301.714 308.815 310.31 307.596" fill="#FF7B7B"/>
<path d="M302.799 289.656C302.799 289.656 300.095 288.822 297.215 294.83L298.292 295.472C298.292 295.472 301.121 291.2 302.799 289.631" fill="#EDEDED"/>
<path d="M281.667 322.174L293.309 315.407L301.672 320.23L290.021 326.997L281.667 322.174Z" fill="#F4F4F4"/>
<path d="M291.832 315.899C291.102 315.977 290.397 316.207 289.762 316.575C289.536 316.78 289.29 316.961 289.028 317.117C288.911 317.176 288.802 317.251 288.677 317.301C288.498 317.36 288.34 317.466 288.218 317.61C288.086 317.798 288.014 318.022 288.009 318.252C287.969 318.529 287.969 318.81 288.009 319.087C288.11 319.504 288.544 319.479 288.777 319.187C288.887 319.038 288.953 318.862 288.969 318.678C288.973 318.5 289.02 318.326 289.106 318.171C289.192 318.015 289.314 317.883 289.462 317.785L292.241 316.058C292.205 315.995 292.15 315.944 292.084 315.914C292.018 315.884 291.945 315.876 291.874 315.891" fill="#FFCEA9"/>
<path d="M313.965 295.038C313.581 293.453 312.338 293.962 311.278 293.036C308.774 296.54 310.443 306.019 310.777 307.029L301.271 313.087L300.637 313.488C299.55 314.19 298.354 314.709 297.098 315.023C296.147 315.131 295.654 316.467 294.636 316.592C294.559 316.594 294.484 316.619 294.421 316.664C294.358 316.709 294.309 316.771 294.282 316.844C294.254 316.916 294.248 316.995 294.265 317.07C294.283 317.145 294.321 317.214 294.377 317.268C294.786 317.66 295.871 317.334 296.614 316.433C296.614 316.433 296.614 316.475 296.614 316.5C296.623 316.639 296.667 316.774 296.741 316.892C296.815 317.01 296.918 317.108 297.04 317.176C297.096 317.2 297.155 317.217 297.215 317.226C297.216 317.29 297.233 317.353 297.265 317.409C297.32 317.518 297.4 317.612 297.499 317.683C297.598 317.754 297.712 317.801 297.833 317.818C297.883 317.981 297.989 318.121 298.133 318.213C298.277 318.305 298.448 318.342 298.617 318.319C298.833 318.309 299.036 318.217 299.185 318.06C299.996 317.748 300.712 317.231 301.263 316.558C301.522 316.233 302.431 315.465 302.807 315.123C305.386 314.022 313.122 310.717 313.465 310.242C313.982 309.541 314.525 297.258 313.974 294.997" fill="#FFCEA9"/>
<path d="M314.833 299.302C314.833 299.302 311.787 300.671 309.267 299.394L309.634 294.638C309.634 294.638 309.634 292.076 311.954 291.826C314.274 291.575 315.401 294.496 314.833 299.336" fill="#EDEDED"/>
<path d="M216.176 33.3773L216.418 33.2688C216.735 33.1353 217.053 33.0185 217.37 32.91H217.428C217.72 32.8099 218.012 32.7264 218.263 32.643H218.446C218.902 32.5168 219.365 32.4165 219.832 32.3426H219.932C220.291 32.2925 220.65 32.2591 221 32.2424H221.209C221.543 32.2424 221.868 32.2424 222.194 32.2424H222.402C222.653 32.2424 222.895 32.2925 223.137 32.3259H223.362C223.646 32.376 223.93 32.4427 224.197 32.5178H224.297C224.532 32.5859 224.763 32.6667 224.989 32.7598L225.215 32.8599L225.824 33.152L226.033 33.2604L197.014 16.3966L196.922 16.3465L196.805 16.2881L196.196 15.9961L196.079 15.9376L195.979 15.8959C195.745 15.8041 195.512 15.7207 195.278 15.6539H195.195C194.919 15.5788 194.644 15.5121 194.36 15.462H194.276H194.135C193.893 15.462 193.651 15.3953 193.4 15.3786H193.258H193.192C192.866 15.3786 192.541 15.3786 192.207 15.3786H192.132H191.998C191.648 15.3786 191.297 15.4286 190.93 15.4787H190.846C190.379 15.5526 189.917 15.6529 189.461 15.7791H189.352H189.277C188.985 15.8625 188.693 15.946 188.443 16.0461H188.384C188.067 16.1546 187.75 16.2714 187.433 16.4049H187.358L187.191 16.4884C186.899 16.6135 186.598 16.747 186.298 16.8972C186.198 16.9473 186.089 16.989 185.989 17.0474C185.613 17.231 185.238 17.4313 184.862 17.6566L213.931 34.5455C214.307 34.3202 214.682 34.1199 215.058 33.9363L215.367 33.7861C215.667 33.6359 215.959 33.5024 216.26 33.3773" fill="#6E6E9C"/>
<path d="M199.192 27.1357C199.676 26.9188 200.161 26.7185 200.628 26.5516H200.695C201.1 26.4155 201.512 26.3013 201.93 26.2095C202.164 26.1483 202.397 26.0982 202.631 26.0593C202.907 26.0006 203.185 25.956 203.466 25.9258L203.966 25.8757C204.334 25.8757 204.692 25.8757 205.043 25.8757H205.285C205.7 25.9023 206.112 25.9553 206.52 26.0343L206.821 26.101C207.131 26.1735 207.438 26.2626 207.739 26.368L208.022 26.4682C208.401 26.6128 208.766 26.7887 209.116 26.9939L180.13 10.0549L180.038 10.0048C179.768 9.85377 179.489 9.71728 179.204 9.59596L179.037 9.53755L178.753 9.43742L178.319 9.27888L177.827 9.17875L177.526 9.11199H177.368C177.034 9.05284 176.696 9.01106 176.358 8.98683H176.049C175.79 8.98683 175.523 8.98683 175.215 8.98683C175.123 8.98683 175.031 8.98683 174.931 8.98683L174.43 9.04524C174.28 9.04524 174.13 9.04524 173.971 9.04524L173.554 9.13702C173.32 9.17597 173.086 9.22603 172.853 9.28722L172.485 9.36232C172.202 9.43742 171.91 9.52921 171.651 9.62934H171.584C171.259 9.74616 170.925 9.87132 170.583 10.0132L170.149 10.2051L169.74 10.397C169.231 10.6307 168.721 10.8893 168.204 11.1897C167.687 11.4901 166.952 11.9574 166.334 12.3997L195.403 29.2885C196.013 28.8546 196.639 28.4541 197.273 28.0786C197.907 27.7031 198.299 27.5196 198.809 27.2859L199.217 27.1023" fill="#6E6E9C"/>
<path d="M171.734 18.8999L172.177 18.708C172.611 18.5327 173.011 18.3658 173.47 18.2156L173.712 18.1239C174.221 17.957 174.722 17.7984 175.223 17.6649C175.507 17.5815 175.799 17.5147 176.057 17.448L176.483 17.3478C176.892 17.256 177.318 17.1893 177.693 17.1225H177.76C178.161 17.0641 178.595 17.0224 178.945 16.9807H179.321H180.013C180.556 16.9514 181.099 16.9514 181.641 16.9807H181.925C182.35 16.9807 182.759 17.0641 183.193 17.1309L183.586 17.1976C184.064 17.2789 184.538 17.3875 185.004 17.5231H185.063C185.496 17.6507 185.922 17.8011 186.34 17.9737L186.699 18.1239C187.057 18.2824 187.4 18.4493 187.742 18.6329L188.076 18.8081L159.015 1.89416L158.865 1.81072L158.681 1.71893C158.347 1.53536 157.997 1.36847 157.638 1.20993L157.463 1.11814L157.296 1.05973C156.878 0.887161 156.452 0.736754 156.019 0.609138H155.977C155.506 0.467364 155.026 0.353132 154.542 0.267021L154.375 0.267021L154.149 0.267021C153.732 0.200267 153.315 0.150201 152.881 0.116823C152.811 0.120908 152.742 0.120908 152.672 0.116823L152.605 0.116823C152.049 0.0863691 151.492 0.0863691 150.936 0.116823L150.786 0.116823L150.252 0.116823L149.876 0.116823C149.492 0.158545 149.092 0.200267 148.7 0.258677H148.641C148.24 0.317087 147.807 0.392186 147.431 0.483973C147.281 0.483973 147.139 0.550728 146.997 0.584105C146.855 0.617482 146.48 0.700925 146.221 0.776024H146.137C145.637 0.909533 145.136 1.06808 144.627 1.23496L144.385 1.32675C143.959 1.47695 143.55 1.64383 143.091 1.81906L142.949 1.86913C142.849 1.86913 142.749 1.96926 142.649 2.00264C142.19 2.2029 141.731 2.41151 141.263 2.63681L140.754 2.88714C140.153 3.18753 139.552 3.50462 138.951 3.85508C138.117 4.3307 137.282 4.84805 136.498 5.39043C136.214 5.58235 135.947 5.7993 135.663 5.99957C135.146 6.36672 134.62 6.73387 134.111 7.12605C133.785 7.37638 133.477 7.65174 133.159 7.96048C132.7 8.32763 132.241 8.69478 131.791 9.08696C131.34 9.47915 131.14 9.6961 130.806 10.0048C130.472 10.3136 129.971 10.7725 129.546 11.1814L129.487 11.2315C128.864 11.8601 128.246 12.5026 127.634 13.159L127.134 13.7181C126.9 13.9767 126.666 14.2271 126.433 14.4941C126.199 14.7611 126.132 14.8612 125.982 15.0448C125.548 15.5622 125.147 16.0795 124.697 16.6052C124.53 16.8221 124.346 17.0224 124.171 17.2477C123.996 17.473 123.929 17.5815 123.804 17.7484C123.486 18.1572 123.186 18.5828 122.877 19C122.685 19.267 122.485 19.5174 122.301 19.7844C122.118 20.0514 122.051 20.1682 121.917 20.3518C121.667 20.7189 121.417 21.0944 121.175 21.4699C120.933 21.8454 120.824 21.9706 120.657 22.2293L120.207 22.9719L119.572 24.0066L119.205 24.6157C118.996 24.9662 118.813 25.3167 118.612 25.6671L118.087 26.6184L117.878 26.9939C117.594 27.5279 117.327 28.0703 117.043 28.6127L116.718 29.2635L116.651 29.397C116.259 30.2315 115.892 31.0158 115.533 31.8336L115.483 31.9587C115.383 32.184 115.299 32.4177 115.199 32.6513C114.965 33.2187 114.723 33.7778 114.506 34.3202C114.456 34.437 114.423 34.5455 114.381 34.6623C114.239 35.0294 114.114 35.4049 113.98 35.7721C113.847 36.1392 113.68 36.6065 113.546 36.9737C113.496 37.1406 113.455 37.2991 113.405 37.4576C113.254 37.9166 113.121 38.3755 112.979 38.8344C112.837 39.2934 112.762 39.5103 112.67 39.8524C112.628 40.011 112.595 40.1695 112.553 40.3364C112.395 40.9372 112.253 41.5297 112.111 42.1305C112.036 42.4475 111.944 42.7646 111.877 43.0734C111.811 43.3821 111.769 43.5907 111.719 43.8494C111.427 44.0163 111.126 44.1665 110.826 44.3417C110.191 44.7088 109.574 45.1094 108.956 45.5182L108.639 45.7268C108.046 46.1274 107.462 46.5613 106.886 46.9952L106.553 47.2622C105.968 47.7211 105.392 48.1884 104.825 48.6891L104.675 48.8226C104.124 49.3066 103.59 49.8156 103.056 50.3329L102.889 50.4831L102.789 50.5916C102.38 50.9921 101.954 51.426 101.578 51.8265L101.52 51.8933C101.144 52.3022 100.769 52.7277 100.402 53.1283L100.301 53.2451L100.168 53.4036C99.5754 54.0962 98.9912 54.8055 98.4236 55.5314L98.3736 55.5898L98.2484 55.7651C97.7977 56.3492 97.3554 56.95 96.9297 57.5507L96.7962 57.7343C96.7719 57.7616 96.7522 57.7926 96.7378 57.8261C96.3205 58.4102 95.9032 59.011 95.536 59.6118L95.4191 59.787C95.3614 59.873 95.3084 59.9622 95.2605 60.054C94.9434 60.5491 94.6346 61.0498 94.3341 61.556C94.2918 61.6368 94.2444 61.7148 94.1923 61.7897L94.1422 61.8814C93.8 62.4656 93.4745 63.058 93.1574 63.6504L93.0823 63.7923L92.932 64.0843C92.6816 64.5572 92.4396 65.0328 92.2059 65.5112L92.0557 65.8116C92.0313 65.8716 92.0034 65.9301 91.9722 65.9869C91.6885 66.596 91.4047 67.1968 91.1376 67.8143V67.8643L91.0625 68.0646C90.8205 68.6153 90.5952 69.166 90.3782 69.7334L90.2697 70.0088C90.2697 70.0756 90.2196 70.159 90.1862 70.2341C89.9358 70.885 89.7021 71.5442 89.4768 72.2034L89.4351 72.3202C89.2097 73.0044 89.0094 73.6887 88.8091 74.3645C88.7891 74.4521 88.764 74.5385 88.734 74.6232C88.737 74.6705 88.737 74.7178 88.734 74.7651C88.517 75.5494 88.3251 76.3421 88.1498 77.1349L88.0997 77.3435C88.0997 77.4519 88.058 77.5521 88.0413 77.6522C87.9745 77.9609 87.9161 78.278 87.866 78.5868C87.816 78.8955 87.7826 79.0123 87.7492 79.2293C87.7158 79.4462 87.649 79.8634 87.599 80.1889C87.599 80.3391 87.5573 80.4893 87.5322 80.6395C87.5361 80.6783 87.5361 80.7174 87.5322 80.7563C87.4488 81.4322 87.382 82.1164 87.3319 82.784V83.2179C87.3319 83.9104 87.2651 84.603 87.2651 85.2789C87.2651 90.4273 88.5337 94.5244 90.6953 97.3865C91.6422 98.6455 92.8276 99.7059 94.1839 100.507L123.253 117.388C118.996 114.885 116.351 109.653 116.334 102.168C116.334 101.492 116.334 100.799 116.401 100.107V99.6812C116.451 99.0053 116.518 98.3211 116.601 97.6452L116.676 97.0778C116.726 96.7523 116.768 96.4353 116.826 96.1182C116.885 95.8011 116.902 95.6926 116.935 95.4757C116.968 95.2587 117.052 94.8498 117.119 94.5411C117.119 94.3659 117.194 94.199 117.227 94.0237C117.402 93.2394 117.594 92.4467 117.811 91.654C117.811 91.5205 117.886 91.3869 117.92 91.2534C118.12 90.5692 118.32 89.885 118.546 89.2091L118.596 89.0589C118.813 88.3913 119.055 87.7405 119.305 87.0813C119.364 86.9144 119.43 86.7475 119.497 86.5806C119.714 86.0299 119.939 85.4708 120.173 84.9118C120.215 84.8283 120.248 84.7449 120.282 84.6614C120.549 84.0439 120.832 83.4432 121.116 82.834L121.35 82.3584C121.584 81.8855 121.826 81.4099 122.076 80.9315L122.301 80.4976C122.618 79.9052 122.944 79.3127 123.286 78.737L123.486 78.4032C123.779 77.8942 124.087 77.3935 124.405 76.8929L124.68 76.459C125.064 75.8582 125.464 75.2574 125.882 74.6649L126.065 74.4063C126.499 73.7971 126.942 73.1963 127.392 72.6122L127.568 72.3786C128.135 71.6526 128.719 70.9434 129.312 70.2508L129.546 69.9754C129.913 69.5582 130.288 69.141 130.664 68.7488L130.722 68.6737C131.123 68.2565 131.557 67.8393 131.933 67.4388L132.2 67.1801C132.734 66.6627 133.276 66.1537 133.819 65.6698L133.969 65.5363C134.525 65.0412 135.101 64.5655 135.697 64.1094L136.03 63.8424C136.606 63.4001 137.19 63.0079 137.783 62.574L138.092 62.3654C138.709 61.9565 139.335 61.531 139.961 61.1972L140.863 60.6966C140.98 60.1291 141.121 59.5534 141.255 58.9776C141.388 58.4019 141.539 57.7844 141.697 57.1836C141.856 56.5828 141.973 56.1823 142.123 55.6816C142.273 55.181 142.398 54.7637 142.549 54.3048C142.699 53.8459 142.924 53.1867 143.124 52.6359C143.258 52.2604 143.383 51.885 143.525 51.5178C143.784 50.8336 144.059 50.1577 144.36 49.4818C144.46 49.2481 144.543 49.0062 144.643 48.7809C145.036 47.8713 145.478 46.9785 145.879 46.0857L146.212 45.4348C146.538 44.7673 146.88 44.0997 147.239 43.4405C147.414 43.1234 147.59 42.8063 147.773 42.4893C148.085 41.933 148.402 41.3767 148.725 40.8204C148.933 40.4699 149.142 40.1195 149.359 39.7774C149.676 39.2683 149.993 38.7677 150.327 38.2754C150.661 37.7831 150.819 37.5244 151.07 37.1572C151.32 36.7901 151.621 36.2978 151.963 35.8806C152.305 35.4633 152.572 35.0461 152.889 34.6206C153.206 34.195 153.482 33.8612 153.782 33.4857C154.208 32.96 154.617 32.4427 155.067 31.9254C155.518 31.408 155.827 31.0325 156.219 30.5986C156.386 30.4067 156.553 30.2231 156.728 30.0395C157.346 29.3609 157.98 28.7017 158.631 28.0619C159.048 27.6531 159.466 27.2275 159.908 26.8687C160.35 26.5099 160.542 26.2596 160.876 25.9759C161.21 25.6921 161.794 25.2082 162.253 24.8243C162.57 24.5657 162.879 24.2986 163.196 24.0483C163.705 23.6561 164.231 23.289 164.757 22.9135L165.592 22.3127C166.426 21.7703 167.261 21.253 168.045 20.7773C168.646 20.4269 169.247 20.1098 169.848 19.8094L170.357 19.5591C170.825 19.3338 171.284 19.1252 171.743 18.9333" fill="#6E6E9C"/>
<path d="M168.037 20.744C181.182 13.159 192.24 17.1309 195.411 29.3219C196.013 28.8867 196.637 28.4829 197.281 28.112C205.568 23.3307 212.454 26.2762 213.848 34.5705C223.395 29.0466 230.907 33.3773 230.907 43.9996C230.907 53.8626 224.505 65.6948 216.184 71.661C215.5 72.145 214.849 72.5789 214.181 72.9627C213.56 73.3226 212.919 73.6485 212.262 73.939L140.036 115.761C126.925 123.329 116.267 117.263 116.225 102.193C116.183 87.123 126.766 68.8156 139.878 61.2306C140.186 61.047 140.478 60.8968 140.779 60.7299C143.884 44.9842 154.884 28.3206 168.003 20.744" fill="#D3D3DD"/>
<path d="M259.475 81.7076C258.164 84.0481 256.572 86.2197 254.735 88.1744C254.217 88.7668 250.269 87.2649 251.096 86.8393C251.922 86.4138 254.509 82.809 255.803 80.4058C256.889 77.5343 257.811 74.6036 258.565 71.6276C259.4 68.6904 260.076 64.3764 260.668 62.3404C260.822 61.5875 261.189 60.8948 261.726 60.3456C262.264 59.7964 262.948 59.4141 263.698 59.2447C265.117 58.9192 266.035 59.3031 265.776 61.022C265.325 64.0426 262.964 75.7664 259.475 81.6909" fill="#FFCEA9"/>
<path d="M261.737 127.668C260.518 128.669 258.707 127.76 258.624 127.852C257.183 129.182 255.673 130.436 254.1 131.607C253.341 132.207 252.147 133.017 252.364 134.168C252.748 136.229 256.053 135.595 257.297 134.961C258.54 134.327 259.558 133.292 260.744 132.558C261.578 132.032 262.413 131.765 262.538 130.697C262.621 130.063 261.962 127.643 261.703 127.668" fill="#38226D"/>
<path d="M262.521 130.23C262.363 131.248 261.545 131.531 260.71 132.049C259.517 132.791 258.457 133.868 257.213 134.494C255.97 135.119 253.19 135.654 252.381 134.185C252.823 136.171 256.061 135.545 257.297 134.919C258.532 134.293 259.558 133.25 260.743 132.516C261.578 131.99 262.413 131.723 262.538 130.655C262.558 130.514 262.558 130.371 262.538 130.23" fill="#9C73FF"/>
<path d="M249.326 120.475C248.099 121.477 245.988 120.383 245.863 120.475C244.594 121.771 243.247 122.988 241.832 124.122C241.064 124.723 239.879 125.524 240.087 126.675C240.479 128.744 243.776 128.11 245.028 127.51C246.28 126.909 247.29 125.841 248.467 125.098C249.301 124.581 250.136 124.305 250.269 123.246C250.344 122.603 249.543 120.484 249.326 120.509" fill="#38226D"/>
<path d="M250.236 122.928C250.069 123.946 249.251 124.23 248.417 124.748C247.223 125.49 246.163 126.567 244.92 127.192C243.676 127.818 240.897 128.352 240.087 126.884C240.53 128.87 243.776 128.244 245.003 127.626C246.23 127.009 247.265 125.957 248.45 125.215C249.285 124.689 250.119 124.422 250.244 123.362C250.261 123.218 250.261 123.073 250.244 122.928" fill="#9C73FF"/>
<path d="M278.111 88.3913C279.472 96.8692 275.7 100.032 270.809 101.834C267.295 103.127 262.254 105.122 262.254 105.122C262.254 105.122 262.329 106.982 262.363 111.155C262.404 114.834 261.912 128.252 261.912 128.252C261.333 128.551 260.69 128.707 260.038 128.707C259.387 128.707 258.744 128.551 258.165 128.252C258.165 128.252 256.195 117.972 255.778 113.341C255.21 107.049 254.242 102.935 254.568 101.584C254.843 100.39 261.72 97.011 263.907 95.2003L249.502 100.023C249.788 101.587 249.927 103.174 249.919 104.763C249.785 109.769 249.51 120.55 249.51 120.55C249.51 120.55 247.532 121.977 245.846 120.55C245.846 120.55 242.224 99.1722 242.666 96.3518C243.084 93.665 255.778 88.1827 258.006 86.2886C258.397 85.9713 258.85 85.7398 259.336 85.6089C259.822 85.4781 260.33 85.451 260.827 85.5292L278.111 88.3913Z" fill="#8C50FF"/>
<path d="M243.576 91.9293L253.249 86.3386C253.334 86.2896 253.43 86.2637 253.528 86.2637C253.626 86.2637 253.723 86.2896 253.808 86.3386L270.783 96.1432L260.827 101.884L243.576 91.9293Z" fill="#F4F4F4"/>
<path d="M261.278 99.8314L262.021 100.257C262.079 100.257 262.071 100.357 262.021 100.39L261.311 100.799C261.275 100.818 261.235 100.827 261.194 100.827C261.154 100.827 261.114 100.818 261.077 100.799L260.343 100.374C260.285 100.374 260.293 100.282 260.343 100.24L261.044 99.8314C261.08 99.8131 261.12 99.8035 261.161 99.8035C261.202 99.8035 261.242 99.8131 261.278 99.8314" fill="#3A2C6D"/>
<path d="M260.234 99.2306L260.977 99.6562C261.036 99.6562 261.027 99.748 260.977 99.7897L260.268 100.199C260.232 100.217 260.192 100.226 260.151 100.226C260.11 100.226 260.07 100.217 260.034 100.199L259.3 99.773C259.241 99.773 259.241 99.6812 259.3 99.6395L260.001 99.2306C260.037 99.2123 260.077 99.2027 260.118 99.2027C260.158 99.2027 260.198 99.2123 260.234 99.2306" fill="#3A2C6D"/>
<path d="M259.183 98.6215L259.918 99.047C259.976 99.047 259.968 99.1388 259.918 99.1805L259.216 99.5894C259.18 99.6077 259.14 99.6173 259.1 99.6173C259.059 99.6173 259.019 99.6077 258.983 99.5894L258.24 99.1639C258.182 99.1639 258.19 99.0637 258.24 99.0304L258.949 98.6215C258.986 98.6032 259.026 98.5936 259.066 98.5936C259.107 98.5936 259.147 98.6032 259.183 98.6215" fill="#3A2C6D"/>
<path d="M258.148 98.0207L258.882 98.4463C258.949 98.4463 258.941 98.5464 258.882 98.5881L258.181 98.9886C258.146 99.0091 258.105 99.0199 258.064 99.0199C258.023 99.0199 257.983 99.0091 257.948 98.9886L257.205 98.5631C257.146 98.5631 257.155 98.4713 257.205 98.4296L257.906 98.029C257.942 98.0107 257.982 98.0012 258.023 98.0012C258.063 98.0012 258.103 98.0107 258.14 98.029" fill="#3A2C6D"/>
<path d="M257.104 97.4199L257.839 97.8455C257.897 97.8455 257.897 97.9456 257.839 97.979L257.138 98.3878C257.102 98.4062 257.062 98.4157 257.021 98.4157C256.98 98.4157 256.94 98.4062 256.904 98.3878L256.161 97.9623C256.103 97.9623 256.111 97.8705 256.161 97.8288L256.871 97.4199C256.907 97.4016 256.947 97.392 256.988 97.392C257.028 97.392 257.068 97.4016 257.104 97.4199" fill="#3A2C6D"/>
<path d="M256.061 96.7941L256.796 97.2196C256.854 97.2196 256.846 97.3114 256.796 97.3531L256.095 97.762C256.059 97.7804 256.019 97.7899 255.978 97.7899C255.937 97.7899 255.897 97.7804 255.861 97.762L255.118 97.3365C255.06 97.3365 255.068 97.2447 255.118 97.203L255.828 96.7941C255.864 96.7757 255.904 96.7662 255.945 96.7662C255.985 96.7662 256.025 96.7757 256.061 96.7941" fill="#3A2C6D"/>
<path d="M255.018 96.2183L255.752 96.6439C255.811 96.6439 255.803 96.7357 255.752 96.7774L255.051 97.1863C255.013 97.2026 254.972 97.211 254.93 97.211C254.889 97.211 254.848 97.2026 254.809 97.1863L254.075 96.7607C254.017 96.7607 254.025 96.6606 254.075 96.6272L254.784 96.2183C254.82 96.1978 254.86 96.187 254.901 96.187C254.942 96.187 254.983 96.1978 255.018 96.2183" fill="#3A2C6D"/>
<path d="M253.975 95.6092L254.71 96.0348C254.768 96.0348 254.76 96.1349 254.71 96.1766L254.008 96.5771C253.971 96.5976 253.93 96.6083 253.887 96.6083C253.845 96.6083 253.803 96.5976 253.766 96.5771L253.032 96.1516C252.974 96.1516 252.982 96.0598 253.032 96.0181L253.733 95.6175C253.771 95.5991 253.812 95.5895 253.854 95.5895C253.896 95.5895 253.937 95.5991 253.975 95.6175" fill="#3A2C6D"/>
<path d="M252.923 95.0084L253.666 95.434C253.724 95.434 253.716 95.5341 253.666 95.5675L252.957 95.9763C252.92 95.9947 252.88 96.0042 252.84 96.0042C252.799 96.0042 252.759 95.9947 252.723 95.9763L251.989 95.5508C251.93 95.5508 251.938 95.459 251.989 95.4173L252.69 95.0084C252.726 94.9901 252.766 94.9805 252.806 94.9805C252.847 94.9805 252.887 94.9901 252.923 95.0084" fill="#3A2C6D"/>
<path d="M251.88 94.4076L252.623 94.8332C252.681 94.8332 252.673 94.9249 252.623 94.9667L251.913 95.3755C251.877 95.3939 251.837 95.4034 251.796 95.4034C251.756 95.4034 251.716 95.3939 251.68 95.3755L250.945 94.95C250.887 94.95 250.887 94.8582 250.945 94.8165L251.646 94.4076C251.682 94.3893 251.722 94.3797 251.763 94.3797C251.804 94.3797 251.844 94.3893 251.88 94.4076" fill="#3A2C6D"/>
<path d="M250.837 93.8068L251.579 94.2324C251.638 94.2324 251.63 94.3242 251.579 94.3659L250.878 94.7748C250.842 94.7914 250.802 94.7999 250.762 94.7999C250.721 94.7999 250.681 94.7914 250.645 94.7748L249.91 94.3492C249.844 94.3492 249.852 94.2491 249.91 94.2157L250.611 93.8068C250.647 93.7863 250.687 93.7755 250.728 93.7755C250.769 93.7755 250.81 93.7863 250.845 93.8068" fill="#3A2C6D"/>
<path d="M249.793 93.1977L250.528 93.6232C250.595 93.6232 250.586 93.7234 250.528 93.7651L249.827 94.1656C249.791 94.1839 249.751 94.1935 249.71 94.1935C249.669 94.1935 249.629 94.1839 249.593 94.1656L248.85 93.74C248.792 93.74 248.8 93.6399 248.85 93.5982L249.551 93.1977C249.588 93.1793 249.628 93.1698 249.668 93.1698C249.709 93.1698 249.749 93.1793 249.785 93.1977" fill="#3A2C6D"/>
<path d="M248.75 92.6219L249.485 93.0475C249.543 93.0475 249.543 93.1476 249.485 93.181L248.784 93.5899C248.748 93.6082 248.708 93.6177 248.667 93.6177C248.626 93.6177 248.586 93.6082 248.55 93.5899L247.807 93.1643C247.749 93.1643 247.757 93.0725 247.807 93.0308L248.517 92.6219C248.553 92.6036 248.593 92.594 248.634 92.594C248.674 92.594 248.714 92.6036 248.75 92.6219" fill="#3A2C6D"/>
<path d="M247.206 91.704L248.442 92.4216C248.5 92.4216 248.5 92.5134 248.442 92.5551L247.741 92.964C247.704 92.9824 247.664 92.9919 247.624 92.9919C247.583 92.9919 247.543 92.9824 247.507 92.964L246.263 92.2464C246.205 92.2464 246.213 92.1546 246.263 92.1129L246.964 91.704C247.002 91.6856 247.044 91.676 247.085 91.676C247.127 91.676 247.169 91.6856 247.206 91.704" fill="#3A2C6D"/>
<path d="M260.744 98.3545L261.478 98.78C261.545 98.78 261.536 98.8718 261.478 98.9135L260.777 99.3224C260.741 99.3407 260.701 99.3503 260.66 99.3503C260.62 99.3503 260.58 99.3407 260.543 99.3224L259.801 98.8969C259.742 98.8969 259.75 98.8051 259.801 98.7633L260.502 98.3545C260.538 98.3361 260.578 98.3266 260.618 98.3266C260.659 98.3266 260.699 98.3361 260.735 98.3545" fill="#3A2C6D"/>
<path d="M259.7 97.7453L260.435 98.1709C260.493 98.1709 260.485 98.271 260.435 98.3127L259.734 98.7133C259.697 98.7316 259.657 98.7411 259.617 98.7411C259.576 98.7411 259.536 98.7316 259.5 98.7133L258.757 98.2877C258.699 98.2877 258.707 98.1876 258.757 98.1459L259.466 97.7453C259.503 97.727 259.543 97.7174 259.583 97.7174C259.624 97.7174 259.664 97.727 259.7 97.7453" fill="#3A2C6D"/>
<path d="M258.648 97.1445L259.391 97.5701C259.45 97.5701 259.441 97.6702 259.391 97.7036L258.682 98.1125C258.646 98.1308 258.606 98.1403 258.565 98.1403C258.524 98.1403 258.484 98.1308 258.448 98.1125L257.714 97.6869C257.655 97.6869 257.664 97.5951 257.714 97.5534L258.415 97.1445C258.451 97.1262 258.491 97.1166 258.532 97.1166C258.572 97.1166 258.612 97.1262 258.648 97.1445" fill="#3A2C6D"/>
<path d="M257.614 96.5437L258.348 96.9693C258.415 96.9693 258.406 97.0611 258.348 97.1028L257.647 97.5117C257.611 97.53 257.571 97.5396 257.53 97.5396C257.49 97.5396 257.45 97.53 257.413 97.5117L256.679 97.0861C256.612 97.0861 256.62 96.986 256.679 96.9526L257.38 96.5437C257.416 96.5254 257.456 96.5159 257.497 96.5159C257.537 96.5159 257.577 96.5254 257.614 96.5437Z" fill="#3A2C6D"/>
<path d="M256.571 95.9597L257.305 96.3852C257.364 96.3852 257.355 96.4853 257.305 96.5187L256.604 96.9276C256.568 96.9459 256.528 96.9555 256.487 96.9555C256.447 96.9555 256.407 96.9459 256.37 96.9276L255.628 96.502C255.569 96.502 255.578 96.4102 255.628 96.3685L256.337 95.9597C256.373 95.9413 256.413 95.9318 256.454 95.9318C256.495 95.9318 256.535 95.9413 256.571 95.9597" fill="#3A2C6D"/>
<path d="M255.519 95.3422L256.262 95.7677C256.32 95.7677 256.312 95.8595 256.262 95.9012L255.552 96.3101C255.516 96.3267 255.476 96.3353 255.435 96.3353C255.395 96.3353 255.355 96.3267 255.319 96.3101L254.584 95.8845C254.526 95.8845 254.534 95.7844 254.584 95.751L255.285 95.3422C255.321 95.3217 255.361 95.3109 255.402 95.3109C255.443 95.3109 255.483 95.3217 255.519 95.3422" fill="#3A2C6D"/>
<path d="M254.475 94.733L255.21 95.1586C255.277 95.1586 255.268 95.2587 255.21 95.3004L254.509 95.701C254.473 95.7215 254.433 95.7323 254.392 95.7323C254.351 95.7323 254.311 95.7215 254.275 95.701L253.541 95.2754C253.474 95.2754 253.482 95.1836 253.541 95.1419L254.242 94.733C254.278 94.7164 254.318 94.7079 254.359 94.7079C254.399 94.7079 254.439 94.7164 254.475 94.733Z" fill="#3A2C6D"/>
<path d="M253.441 94.1322L254.175 94.5578C254.233 94.5578 254.225 94.6496 254.175 94.6913L253.441 95.1252C253.404 95.1435 253.364 95.1531 253.324 95.1531C253.283 95.1531 253.243 95.1435 253.207 95.1252L252.464 94.6997C252.406 94.6997 252.414 94.6079 252.464 94.5661L253.173 94.1573C253.21 94.1389 253.25 94.1294 253.29 94.1294C253.331 94.1294 253.371 94.1389 253.407 94.1573" fill="#3A2C6D"/>
<path d="M252.381 93.5314L253.124 93.957C253.182 93.957 253.174 94.0488 253.124 94.0905L252.414 94.4994C252.377 94.516 252.338 94.5246 252.297 94.5246C252.257 94.5246 252.217 94.516 252.18 94.4994L251.446 94.0738C251.388 94.0738 251.396 93.9737 251.446 93.932L252.147 93.5314C252.183 93.5109 252.223 93.5001 252.264 93.5001C252.305 93.5001 252.345 93.5109 252.381 93.5314" fill="#3A2C6D"/>
<path d="M251.337 92.9223L252.072 93.3479C252.139 93.3479 252.13 93.448 252.072 93.4814L251.371 93.8902C251.334 93.9086 251.294 93.9181 251.254 93.9181C251.213 93.9181 251.173 93.9086 251.137 93.8902L250.394 93.4647C250.336 93.4647 250.344 93.3729 250.394 93.3312L251.095 92.9223C251.132 92.904 251.172 92.8944 251.212 92.8944C251.253 92.8944 251.293 92.904 251.329 92.9223" fill="#3A2C6D"/>
<path d="M250.294 92.3215L251.029 92.7471C251.087 92.7471 251.079 92.8389 251.029 92.8806L250.328 93.2895C250.292 93.3078 250.252 93.3173 250.211 93.3173C250.17 93.3173 250.13 93.3078 250.094 93.2895L249.351 92.8639C249.293 92.8639 249.301 92.7638 249.351 92.7304L250.061 92.3215C250.097 92.3032 250.137 92.2936 250.178 92.2936C250.218 92.2936 250.258 92.3032 250.294 92.3215" fill="#3A2C6D"/>
<path d="M249.268 91.7124L250.011 92.1379C250.069 92.1379 250.061 92.2381 250.011 92.2798L249.301 92.6803C249.265 92.6986 249.225 92.7082 249.185 92.7082C249.144 92.7082 249.104 92.6986 249.068 92.6803L248.333 92.2548C248.275 92.2548 248.283 92.1546 248.333 92.1129L249.034 91.7124C249.071 91.6941 249.111 91.6845 249.151 91.6845C249.192 91.6845 249.232 91.6941 249.268 91.7124" fill="#3A2C6D"/>
<path d="M261.787 98.9553L263.031 99.6729C263.089 99.6729 263.081 99.773 263.031 99.8064L262.329 100.215C262.293 100.234 262.253 100.243 262.213 100.243C262.172 100.243 262.132 100.234 262.096 100.215L260.852 99.4976C260.794 99.4976 260.802 99.4059 260.852 99.3641L261.553 98.9553C261.59 98.9387 261.63 98.9301 261.67 98.9301C261.71 98.9301 261.75 98.9387 261.787 98.9553Z" fill="#3A2C6D"/>
<path d="M247.257 91.6707L247.991 92.0962C248.025 92.1125 248.062 92.1209 248.1 92.1209C248.137 92.1209 248.174 92.1125 248.208 92.0962L248.951 91.6623C249.018 91.6623 249.018 91.5705 248.951 91.5371H248.892C248.882 91.5314 248.873 91.5229 248.867 91.5126C248.861 91.5024 248.858 91.4907 248.858 91.4787C248.858 91.4668 248.861 91.4551 248.867 91.4448C248.873 91.4346 248.882 91.4261 248.892 91.4203L249.685 90.9614C249.698 90.9566 249.709 90.9481 249.717 90.9369C249.725 90.9257 249.729 90.9124 249.729 90.8988C249.729 90.8852 249.725 90.8719 249.717 90.8607C249.709 90.8495 249.698 90.841 249.685 90.8362L249.218 90.5692C249.183 90.5528 249.144 90.5443 249.105 90.5443C249.066 90.5443 249.028 90.5528 248.993 90.5692L248.258 90.9948L248.108 91.0782L247.999 91.145L247.891 91.2117L247.257 91.5705C247.19 91.5705 247.19 91.6623 247.257 91.704" fill="#3A2C6D"/>
<path d="M265.325 97.495L266.06 97.9205C266.126 97.9205 266.118 98.0123 266.06 98.0541L265.359 98.4629C265.322 98.4795 265.282 98.4881 265.242 98.4881C265.201 98.4881 265.162 98.4795 265.125 98.4629L264.382 98.0374C264.324 98.0374 264.332 97.9372 264.382 97.9039L265.083 97.495C265.119 97.4745 265.159 97.4637 265.2 97.4637C265.241 97.4637 265.281 97.4745 265.317 97.495" fill="#3A2C6D"/>
<path d="M264.291 96.8942L265.033 97.3198C265.092 97.3198 265.083 97.4115 265.033 97.4533L264.324 97.8621C264.287 97.8787 264.247 97.8873 264.207 97.8873C264.167 97.8873 264.127 97.8787 264.09 97.8621L263.356 97.4366C263.297 97.4366 263.297 97.3364 263.356 97.3031L264.057 96.8942C264.092 96.8737 264.133 96.8629 264.174 96.8629C264.215 96.8629 264.255 96.8737 264.291 96.8942" fill="#3A2C6D"/>
<path d="M263.239 96.2934L263.982 96.719C264.04 96.719 264.032 96.8108 263.982 96.8525L263.281 97.2614C263.243 97.2777 263.201 97.2861 263.16 97.2861C263.118 97.2861 263.077 97.2777 263.039 97.2614L262.304 96.8358C262.246 96.8358 262.254 96.7357 262.304 96.7023L263.005 96.2934C263.041 96.2729 263.081 96.2621 263.122 96.2621C263.163 96.2621 263.204 96.2729 263.239 96.2934" fill="#3A2C6D"/>
<path d="M254.375 91.17L255.11 91.5956C255.177 91.5956 255.168 91.6957 255.11 91.7291L254.409 92.1379C254.373 92.1563 254.333 92.1658 254.292 92.1658C254.251 92.1658 254.211 92.1563 254.175 92.1379L253.432 91.7124C253.374 91.7124 253.382 91.6206 253.432 91.5789L254.142 91.17C254.178 91.1517 254.218 91.1421 254.259 91.1421C254.299 91.1421 254.339 91.1517 254.375 91.17" fill="#3A2C6D"/>
<path d="M253.332 90.5692L254.075 90.9948C254.134 90.9948 254.125 91.0949 254.075 91.1283L253.366 91.5371C253.33 91.5555 253.289 91.565 253.249 91.565C253.208 91.565 253.168 91.5555 253.132 91.5371L252.398 91.1116C252.331 91.1116 252.339 91.0198 252.398 90.9781L253.099 90.5692C253.135 90.5509 253.175 90.5413 253.216 90.5413C253.256 90.5413 253.296 90.5509 253.332 90.5692" fill="#3A2C6D"/>
<path d="M252.289 89.9684L253.032 90.394C253.09 90.394 253.082 90.4941 253.032 90.5275L252.322 90.9364C252.286 90.9547 252.246 90.9642 252.205 90.9642C252.165 90.9642 252.125 90.9547 252.089 90.9364L251.354 90.5108C251.296 90.5108 251.304 90.419 251.354 90.3773L252.055 89.9684C252.091 89.9501 252.132 89.9405 252.172 89.9405C252.213 89.9405 252.253 89.9501 252.289 89.9684" fill="#3A2C6D"/>
<path d="M251.254 89.3676L251.989 89.7932C252.047 89.7932 252.039 89.8933 251.989 89.9267L251.288 90.3356C251.25 90.354 251.209 90.3636 251.167 90.3636C251.125 90.3636 251.083 90.354 251.046 90.3356L250.311 89.91C250.253 89.91 250.261 89.8182 250.311 89.7765L251.021 89.3676C251.057 89.3493 251.097 89.3398 251.138 89.3398C251.178 89.3398 251.218 89.3493 251.254 89.3676" fill="#3A2C6D"/>
<path d="M261.937 95.5341L262.939 96.1182C262.997 96.1182 262.989 96.21 262.939 96.2517L262.237 96.6606C262.201 96.6771 262.161 96.6857 262.121 96.6857C262.08 96.6857 262.04 96.6771 262.004 96.6606L260.994 96.0765C260.935 96.0765 260.944 95.9847 260.994 95.943L261.695 95.5341C261.733 95.5157 261.774 95.5061 261.816 95.5061C261.858 95.5061 261.899 95.5157 261.937 95.5341" fill="#3A2C6D"/>
<path d="M255.419 91.7875L256.42 92.3716C256.479 92.3716 256.479 92.4634 256.42 92.5051L255.719 92.914C255.683 92.9323 255.643 92.9418 255.602 92.9418C255.562 92.9418 255.522 92.9323 255.486 92.914L254.476 92.3299C254.417 92.3299 254.426 92.2381 254.476 92.1963L255.185 91.7875C255.222 91.7709 255.262 91.7623 255.302 91.7623C255.342 91.7623 255.382 91.7709 255.419 91.7875" fill="#3A2C6D"/>
<path d="M256.729 92.5301L261.628 95.3588C261.686 95.3588 261.678 95.4506 261.628 95.4924L260.927 95.9012C260.891 95.9196 260.851 95.9291 260.81 95.9291C260.77 95.9291 260.73 95.9196 260.693 95.9012L255.786 93.0725C255.727 93.0725 255.736 92.9724 255.786 92.939L256.487 92.5301C256.525 92.5117 256.566 92.5021 256.608 92.5021C256.65 92.5021 256.691 92.5117 256.729 92.5301" fill="#3A2C6D"/>
<path d="M261.47 97.6285L262.213 98.0541C262.271 98.0541 262.263 98.1542 262.213 98.1876L261.503 98.5964C261.468 98.6169 261.427 98.6277 261.386 98.6277C261.345 98.6277 261.305 98.6169 261.269 98.5964L260.535 98.1709C260.477 98.1709 260.477 98.0791 260.535 98.0374L261.236 97.6285C261.273 97.6119 261.313 97.6033 261.353 97.6033C261.393 97.6033 261.433 97.6119 261.47 97.6285" fill="#3A2C6D"/>
<path d="M260.426 97.0027L261.169 97.4282C261.228 97.4282 261.219 97.5284 261.169 97.5618L260.46 97.9706C260.423 97.989 260.383 97.9985 260.343 97.9985C260.302 97.9985 260.262 97.989 260.226 97.9706L259.492 97.5451C259.433 97.5451 259.433 97.4533 259.492 97.4116L260.193 97.0027C260.229 96.9844 260.269 96.9748 260.309 96.9748C260.35 96.9748 260.39 96.9844 260.426 97.0027" fill="#3A2C6D"/>
<path d="M259.383 96.4019L260.126 96.8275C260.184 96.8275 260.176 96.9192 260.126 96.961L259.416 97.3698C259.38 97.3882 259.34 97.3977 259.299 97.3977C259.259 97.3977 259.219 97.3882 259.183 97.3698L258.448 96.9443C258.39 96.9443 258.39 96.8525 258.448 96.8108L259.149 96.4019C259.185 96.3836 259.225 96.374 259.266 96.374C259.307 96.374 259.347 96.3836 259.383 96.4019" fill="#3A2C6D"/>
<path d="M258.34 95.8011L259.083 96.2267C259.141 96.2267 259.133 96.3184 259.083 96.3602L258.373 96.769C258.337 96.7874 258.297 96.7969 258.256 96.7969C258.216 96.7969 258.176 96.7874 258.14 96.769L257.405 96.3435C257.347 96.3435 257.347 96.2434 257.405 96.21L258.106 95.8011C258.142 95.7828 258.182 95.7732 258.223 95.7732C258.264 95.7732 258.304 95.7828 258.34 95.8011" fill="#3A2C6D"/>
<path d="M257.297 95.2003L258.04 95.6259C258.098 95.6259 258.09 95.7177 258.04 95.7594L257.33 96.1683C257.293 96.1848 257.254 96.1934 257.213 96.1934C257.173 96.1934 257.133 96.1848 257.097 96.1683L256.362 95.7427C256.304 95.7427 256.312 95.6426 256.362 95.6008L257.063 95.2003C257.099 95.1798 257.139 95.169 257.18 95.169C257.221 95.169 257.261 95.1798 257.297 95.2003" fill="#3A2C6D"/>
<path d="M256.253 94.5912L256.996 95.0167C257.055 95.0167 257.046 95.1169 256.996 95.1586L256.287 95.5591C256.25 95.5774 256.21 95.587 256.17 95.587C256.129 95.587 256.089 95.5774 256.053 95.5591L255.319 95.1336C255.26 95.1336 255.269 95.0334 255.319 94.9917L256.02 94.5912C256.056 94.5728 256.096 94.5633 256.136 94.5633C256.177 94.5633 256.217 94.5728 256.253 94.5912" fill="#3A2C6D"/>
<path d="M255.21 93.9904L255.953 94.4159C256.012 94.4159 256.003 94.5161 255.953 94.5494L255.244 94.9583C255.208 94.9788 255.168 94.9896 255.127 94.9896C255.086 94.9896 255.046 94.9788 255.01 94.9583L254.276 94.5328C254.217 94.5328 254.226 94.441 254.276 94.3992L254.977 93.9904C255.013 93.9738 255.053 93.9652 255.094 93.9652C255.134 93.9652 255.174 93.9738 255.21 93.9904" fill="#3A2C6D"/>
<path d="M254.167 93.3896L254.91 93.8151C254.968 93.8151 254.96 93.9153 254.91 93.9486L254.2 94.3575C254.164 94.3758 254.124 94.3854 254.083 94.3854C254.043 94.3854 254.003 94.3758 253.967 94.3575L253.232 93.932C253.174 93.932 253.182 93.8402 253.232 93.7985L253.933 93.3896C253.969 93.3712 254.009 93.3617 254.05 93.3617C254.091 93.3617 254.131 93.3712 254.167 93.3896" fill="#3A2C6D"/>
<path d="M253.123 92.7888L253.866 93.2144C253.925 93.2144 253.916 93.3061 253.866 93.3479L253.157 93.7567C253.121 93.7751 253.081 93.7846 253.04 93.7846C252.999 93.7846 252.959 93.7751 252.923 93.7567L252.189 93.3312C252.13 93.3312 252.139 93.2394 252.189 93.1977L252.89 92.7888C252.926 92.7705 252.966 92.7609 253.007 92.7609C253.047 92.7609 253.087 92.7705 253.123 92.7888" fill="#3A2C6D"/>
<path d="M252.089 92.188L252.823 92.6136C252.882 92.6136 252.873 92.7054 252.823 92.7471L252.114 93.156C252.078 93.1743 252.038 93.1838 251.997 93.1838C251.956 93.1838 251.916 93.1743 251.88 93.156L251.146 92.7304C251.087 92.7304 251.096 92.6303 251.146 92.5969L251.847 92.188C251.884 92.1696 251.926 92.16 251.968 92.16C252.01 92.16 252.051 92.1696 252.089 92.188" fill="#3A2C6D"/>
<path d="M251.045 91.5872L251.78 92.0128C251.838 92.0128 251.83 92.1046 251.78 92.1463L251.07 92.5552C251.034 92.5717 250.994 92.5803 250.954 92.5803C250.913 92.5803 250.873 92.5717 250.837 92.5552L250.102 92.1296C250.044 92.1296 250.052 92.0295 250.102 91.9877L250.803 91.5872C250.84 91.5668 250.882 91.556 250.924 91.556C250.967 91.556 251.008 91.5668 251.045 91.5872" fill="#3A2C6D"/>
<path d="M250.002 90.953L250.737 91.3786C250.795 91.3786 250.787 91.4787 250.737 91.5205L250.036 91.921C249.998 91.9394 249.957 91.949 249.915 91.949C249.873 91.949 249.831 91.9394 249.794 91.921L249.059 91.4954C249.001 91.4954 249.009 91.3953 249.059 91.3536L249.76 90.953C249.798 90.9346 249.839 90.925 249.881 90.925C249.923 90.925 249.965 90.9346 250.002 90.953" fill="#3A2C6D"/>
<path d="M262.513 98.2043L264.04 99.0888C264.099 99.0888 264.09 99.1806 264.04 99.2223L263.339 99.6312C263.303 99.6495 263.263 99.659 263.222 99.659C263.182 99.659 263.142 99.6495 263.106 99.6312L261.578 98.7466C261.511 98.7466 261.52 98.6549 261.578 98.6131L262.279 98.2126C262.316 98.1943 262.356 98.1847 262.396 98.1847C262.437 98.1847 262.477 98.1943 262.513 98.2126" fill="#3A2C6D"/>
<path d="M263.005 97.3198L263.74 97.7453C263.798 97.7453 263.79 97.8371 263.74 97.8788L263.039 98.2877C263.003 98.306 262.962 98.3156 262.922 98.3156C262.881 98.3156 262.841 98.306 262.805 98.2877L262.062 97.8621C262.004 97.8621 262.012 97.7704 262.062 97.7286L262.772 97.3198C262.808 97.3014 262.848 97.2919 262.889 97.2919C262.929 97.2919 262.969 97.3014 263.005 97.3198" fill="#3A2C6D"/>
<path d="M261.962 96.719L262.696 97.1445C262.755 97.1445 262.746 97.2363 262.696 97.278L261.995 97.6869C261.959 97.7052 261.919 97.7148 261.878 97.7148C261.838 97.7148 261.798 97.7052 261.762 97.6869L261.019 97.2613C260.96 97.2613 260.969 97.1612 261.019 97.1278L261.728 96.719C261.764 96.7006 261.804 96.6911 261.845 96.6911C261.886 96.6911 261.926 96.7006 261.962 96.719" fill="#3A2C6D"/>
<path d="M260.952 96.1182L261.687 96.5437C261.745 96.5437 261.737 96.6355 261.687 96.6772L260.985 97.0861C260.948 97.1045 260.906 97.1141 260.864 97.1141C260.823 97.1141 260.781 97.1045 260.743 97.0861L260.009 96.6606C259.951 96.6606 259.959 96.5604 260.009 96.527L260.718 96.1182C260.755 96.0998 260.795 96.0903 260.835 96.0903C260.876 96.0903 260.916 96.0998 260.952 96.1182" fill="#3A2C6D"/>
<path d="M259.875 95.5174L260.61 95.9429C260.668 95.9429 260.66 96.0347 260.61 96.0764L259.909 96.4853C259.872 96.5019 259.832 96.5105 259.792 96.5105C259.752 96.5105 259.712 96.5019 259.675 96.4853L258.932 96.0598C258.874 96.0598 258.882 95.9596 258.932 95.9179L259.642 95.5174C259.677 95.4969 259.718 95.4861 259.759 95.4861C259.8 95.4861 259.84 95.4969 259.875 95.5174" fill="#3A2C6D"/>
<path d="M258.832 94.9083L259.566 95.3338C259.625 95.3338 259.617 95.4339 259.566 95.4757L258.865 95.8762C258.829 95.8945 258.789 95.9041 258.749 95.9041C258.708 95.9041 258.668 95.8945 258.632 95.8762L257.889 95.4506C257.83 95.4506 257.839 95.3505 257.889 95.3088L258.598 94.9083C258.635 94.8899 258.675 94.8804 258.715 94.8804C258.756 94.8804 258.796 94.8899 258.832 94.9083" fill="#3A2C6D"/>
<path d="M257.789 94.2908L258.524 94.7163C258.582 94.7163 258.574 94.8165 258.524 94.8582L257.822 95.2587C257.787 95.2792 257.747 95.29 257.706 95.29C257.665 95.29 257.624 95.2792 257.589 95.2587L256.846 94.8332C256.788 94.8332 256.796 94.7414 256.846 94.6996L257.555 94.2908C257.592 94.2742 257.632 94.2656 257.672 94.2656C257.713 94.2656 257.752 94.2742 257.789 94.2908" fill="#3A2C6D"/>
<path d="M256.779 93.7067L257.514 94.1322C257.572 94.1322 257.564 94.2324 257.514 94.2657L256.813 94.6746C256.776 94.6929 256.736 94.7025 256.696 94.7025C256.655 94.7025 256.615 94.6929 256.579 94.6746L255.836 94.2491C255.778 94.2491 255.786 94.1573 255.836 94.1155L256.546 93.7067C256.582 93.6883 256.622 93.6788 256.662 93.6788C256.703 93.6788 256.743 93.6883 256.779 93.7067" fill="#3A2C6D"/>
<path d="M255.703 93.1059L256.437 93.5314C256.504 93.5314 256.487 93.6232 256.437 93.665L255.736 94.0738C255.7 94.0922 255.66 94.1017 255.619 94.1017C255.579 94.1017 255.539 94.0922 255.502 94.0738L254.759 93.6483C254.701 93.6483 254.709 93.5565 254.759 93.5148L255.469 93.1059C255.505 93.0876 255.545 93.078 255.586 93.078C255.626 93.078 255.666 93.0876 255.703 93.1059" fill="#3A2C6D"/>
<path d="M254.659 92.5051L255.394 92.9307C255.46 92.9307 255.452 93.0225 255.394 93.0642L254.693 93.4731C254.656 93.4914 254.616 93.5009 254.576 93.5009C254.535 93.5009 254.495 93.4914 254.459 93.4731L253.716 93.0475C253.658 93.0475 253.666 92.9474 253.716 92.914L254.425 92.5051C254.462 92.4868 254.502 92.4772 254.542 92.4772C254.583 92.4772 254.623 92.4868 254.659 92.5051" fill="#3A2C6D"/>
<path d="M253.616 91.9043L254.351 92.3299C254.417 92.3299 254.409 92.4217 254.351 92.4634L253.65 92.8723C253.613 92.8888 253.573 92.8974 253.533 92.8974C253.492 92.8974 253.453 92.8888 253.416 92.8723L252.673 92.4467C252.615 92.4467 252.623 92.3466 252.673 92.3132L253.382 91.9043C253.418 91.8838 253.458 91.873 253.499 91.873C253.54 91.873 253.581 91.8838 253.616 91.9043" fill="#3A2C6D"/>
<path d="M252.606 91.3035L253.341 91.7291C253.408 91.7291 253.399 91.8209 253.341 91.8626L252.64 92.2715C252.603 92.288 252.563 92.2966 252.523 92.2966C252.483 92.2966 252.443 92.288 252.406 92.2715L251.663 91.8459C251.605 91.8459 251.613 91.7458 251.663 91.7041L252.373 91.3035C252.408 91.283 252.449 91.2722 252.49 91.2722C252.531 91.2722 252.571 91.283 252.606 91.3035" fill="#3A2C6D"/>
<path d="M250.236 89.9517L252.264 91.1199C252.331 91.1199 252.322 91.2201 252.264 91.2618L251.563 91.6623C251.527 91.6828 251.487 91.6936 251.446 91.6936C251.405 91.6936 251.365 91.6828 251.329 91.6623L249.301 90.4941C249.243 90.4941 249.251 90.4023 249.301 90.3606L250.002 89.9517C250.038 89.9334 250.078 89.9238 250.119 89.9238C250.16 89.9238 250.2 89.9334 250.236 89.9517" fill="#3A2C6D"/>
<path d="M264.048 97.9206L265.05 98.5047C265.108 98.5047 265.1 98.5964 265.05 98.6382L264.349 99.047C264.312 99.0636 264.272 99.0722 264.232 99.0722C264.192 99.0722 264.152 99.0636 264.115 99.047L263.105 98.4629C263.047 98.4629 263.055 98.3711 263.105 98.3294L263.815 97.9206C263.851 97.9022 263.891 97.8927 263.931 97.8927C263.972 97.8927 264.012 97.9022 264.048 97.9206" fill="#3A2C6D"/>
<path d="M246.155 92.3132L260.952 100.858C261.011 100.858 261.002 100.958 260.952 101L260.602 101.2C260.564 101.218 260.523 101.228 260.481 101.228C260.439 101.228 260.397 101.218 260.36 101.2L245.554 92.6219C245.487 92.6219 245.495 92.5301 245.554 92.4884L245.904 92.2881C245.94 92.2676 245.98 92.2568 246.021 92.2568C246.062 92.2568 246.103 92.2676 246.138 92.2881" fill="#3A2C6D"/>
<path d="M263.481 92.6887L263.381 92.7471L260.827 94.224L256.278 91.5956L256.178 91.5455L258.841 90.0101L263.481 92.6887Z" fill="#BFBFBF"/>
<path d="M263.381 92.7471L260.827 94.224L256.278 91.5956L258.841 90.1186L263.381 92.7471Z" fill="#E5E5E5"/>
<path d="M270.784 96.1432V96.3685C270.789 96.5369 270.749 96.7037 270.666 96.8507C270.584 96.9977 270.463 97.1195 270.316 97.2029L261.295 102.41C261.154 102.492 260.994 102.535 260.831 102.535C260.669 102.535 260.509 102.492 260.368 102.41L244.044 92.9891C243.897 92.9056 243.776 92.7839 243.694 92.6368C243.611 92.4898 243.571 92.3231 243.576 92.1546V91.9293L260.827 101.884L270.784 96.1432Z" fill="#E5E5E5"/>
<path d="M260.568 102.026C260.414 102.084 260.249 102.108 260.084 102.095C259.92 102.082 259.76 102.033 259.617 101.951L243.367 92.5718C243.225 92.4905 243.103 92.3787 243.009 92.2446C242.915 92.1104 242.852 91.9572 242.825 91.7958L241.047 81.1902C241.043 81.1291 241.043 81.0678 241.047 81.0066C241.047 80.7124 241.164 80.4302 241.373 80.2223L258.265 89.9768C258.368 90.037 258.458 90.1189 258.527 90.2168C258.596 90.3147 258.643 90.4264 258.665 90.5442L260.568 102.026Z" fill="#F4F4F4"/>
<path d="M260.827 101.884L260.718 101.951L260.568 102.026L258.649 90.5442C258.627 90.4264 258.579 90.3147 258.51 90.2168C258.441 90.1189 258.352 90.037 258.248 89.9768L241.356 80.2223C241.422 80.1549 241.498 80.0986 241.581 80.0554L258.507 89.8182C258.611 89.8794 258.701 89.9626 258.771 90.062C258.84 90.1614 258.886 90.2747 258.907 90.394L260.827 101.884Z" fill="#E5E5E5"/>
<path d="M273.095 56.491C273.095 56.491 272.887 60.5297 272.979 60.8885C273.07 61.2473 274.831 62.4238 275.349 62.8494C275.866 63.275 272.553 66.5292 270.951 67.2719C269.348 68.0145 264.274 66.062 264.157 63.567C264.04 61.0721 265.033 58.9693 265.826 58.8525C266.619 58.7357 273.112 56.491 273.112 56.491" fill="#FFCEA9"/>
<path d="M273.546 61.5811C273.546 61.5811 270.617 65.9451 266.535 66.354C265.242 65.0857 265.125 60.5631 266.911 59.1195C266.911 59.1195 265.242 57.8011 264.148 58.0598C262.949 58.7887 262.059 59.9315 261.645 61.2723C260.603 64.2748 260.114 67.4411 260.201 70.618C260.268 74.8986 260.201 85.7295 260.201 85.7295C260.443 87.0085 260.952 88.2221 261.695 89.2905C262.439 90.359 263.4 91.2582 264.516 91.9293C267.463 93.5857 270.929 94.0629 274.214 93.2644C276.283 92.7805 277.051 91.5956 277.761 90.1186C277.577 87.123 276.392 80.9399 276.926 77.1682C277.46 73.3966 278.22 70.5762 278.428 67.5222C278.637 64.4682 278.028 64.5349 276.5 63.4418C275.58 62.7536 274.613 62.1318 273.604 61.5811" fill="#F4F4F4"/>
<path d="M268.847 96.3685C269.584 95.8821 270.351 95.4418 271.142 95.0501C271.885 94.8193 272.56 94.4128 273.112 93.8652C273.83 93.1559 275.007 90.5275 275.841 87.9074C276.675 84.9805 277.003 81.9327 276.809 78.8955C276.45 75.249 275.14 70.159 274.806 68.0479C274.472 65.9368 275.148 65.119 276.125 64.343C277.268 63.4418 278.846 63.8423 279.689 66.7712C280.789 70.8537 281.43 75.0463 281.6 79.271C281.624 82.3896 281.133 85.4908 280.148 88.4497C279.279 90.9901 278.102 93.4142 276.642 95.6676C276.242 96.3435 276.117 96.9443 275.499 98.3294C274.907 99.7162 273.988 100.939 272.82 101.892C271.793 102.627 271.309 102.727 271.067 102.593C270.825 102.46 270.825 102.084 271.259 101.692C271.986 101.126 272.605 100.433 273.087 99.6478C273.087 99.6478 272.186 100.549 271.601 101.033C271.084 101.474 270.508 101.842 269.89 102.126C269.29 102.393 268.455 101.884 268.881 101.484C269.306 101.083 269.715 100.874 270.6 100.14C271.055 99.7479 271.461 99.3024 271.81 98.8134C271.211 99.2766 270.574 99.6897 269.907 100.048C269.386 100.369 268.783 100.531 268.171 100.516C267.854 100.516 267.47 100.065 268.063 99.6311C268.881 99.2064 269.646 98.6853 270.341 98.0791C270.992 97.4282 271.368 96.8775 271.176 96.8692C270.984 96.8608 270.633 97.2613 269.865 97.5033C269.098 97.7453 268.271 97.5033 268.196 97.1111C268.121 96.719 268.121 96.7607 268.839 96.4102" fill="#FFCEA9"/>
<path d="M263.965 50.4748C264.441 47.3373 266.702 44.9675 269.932 45.1428C271.578 45.2438 273.116 45.9923 274.211 47.2246C275.306 48.4568 275.868 50.0725 275.774 51.7181C275.722 52.6691 275.449 53.5949 274.979 54.423C274.508 55.2511 273.852 55.9589 273.062 56.491C272.95 56.9654 272.782 57.4248 272.561 57.8595C271.418 59.1946 267.963 60.0207 266.969 59.8788C266.379 59.8263 265.819 59.5977 265.361 59.2228C264.902 58.8478 264.567 58.3438 264.399 57.7761C263.322 55.3145 263.664 52.0185 263.931 50.4748" fill="#FFCEA9"/>
<path d="M273.096 56.491L272.803 53.7541C272.803 53.7541 275.032 47.9715 269.757 49.0813C266.277 49.8156 265.401 50.1326 264.341 47.7962C263.281 45.4598 267.02 43.3571 271.46 43.9412C272.989 44.1019 274.402 44.8308 275.419 45.9837C276.436 47.1365 276.983 48.6291 276.951 50.166C276.835 51.885 276.376 55.3645 273.096 56.491" fill="#3A2C6D"/>
<path d="M282.134 72.1783C282.134 72.1783 279.255 75.0488 275.841 74.2227C275.357 73.8889 274.172 67.1968 274.172 67.1968C274.172 67.1968 274.172 63.4835 277.018 63.5837C279.864 63.6838 282.117 72.1783 282.117 72.1783" fill="#EDEDED"/>
<path d="M260.385 66.6294C259.578 66.5968 258.815 66.2528 258.256 65.6698C258.365 64.1761 260.284 58.4853 264.149 58.0597C263.097 58.7956 262.264 59.8018 261.737 60.9719C261.14 62.8199 260.688 64.7114 260.385 66.6294" fill="#EDEDED"/>
<g opacity="0.4">
<g opacity="0.4">
<path opacity="0.4" d="M245.095 413.603C247.156 418.1 256.028 418.442 264.916 414.37C273.805 410.298 279.313 403.347 277.26 398.858C275.207 394.369 266.327 394.019 257.438 398.091C248.55 402.163 243.017 409.113 245.086 413.611" fill="#D6D8E5"/>
</g>
</g>
<path d="M275.315 333.063C275.315 333.063 274.764 341.349 273.646 342.543C272.528 343.736 268.881 344.554 268.881 344.554L266.043 349.21C266.043 349.21 268.63 334.398 269.198 334.04C269.765 333.681 275.282 333.063 275.282 333.063" fill="#FFCEA9"/>
<path d="M269.866 323.86C270.556 323.543 271.338 323.489 272.066 323.709C272.793 323.929 273.414 324.407 273.813 325.053C274.857 326.78 275.933 332.705 276.033 333.714C276.033 333.714 274.573 335.734 272.378 335.383L269.866 323.86Z" fill="#EDEDED"/>
<path d="M261.478 406.568C259.935 407 258.284 406.802 256.888 406.018C255.786 406.018 249.794 403.514 248.976 405.642C248.258 407.528 250.853 409.272 252.247 409.614C255.268 410.348 257.514 411.85 258.732 412.117C259.633 412.309 260.81 412.434 261.528 411.725C262.363 410.891 262.321 407.703 261.478 406.577" fill="#38226D"/>
<path d="M258.732 411.583C257.514 411.333 255.269 409.823 252.248 409.08C251.079 408.796 249.076 407.528 248.909 406.009C248.642 407.745 250.987 409.289 252.248 409.597C255.269 410.332 257.514 411.842 258.732 412.101C259.634 412.293 260.81 412.418 261.528 411.709C261.716 411.501 261.853 411.252 261.929 410.983C261.479 411.324 260.956 411.556 260.401 411.658C259.846 411.761 259.274 411.733 258.732 411.575" fill="#9C73FF"/>
<path d="M270.809 403.665C269.267 404.09 267.621 403.889 266.227 403.106C265.117 403.106 259.124 400.602 258.307 402.73C257.597 404.616 260.193 406.36 261.578 406.702C264.608 407.436 266.844 408.947 268.063 409.205C268.973 409.397 270.141 409.522 270.867 408.813C271.702 407.979 271.66 404.799 270.809 403.673" fill="#38226D"/>
<path d="M268.063 408.68C266.844 408.421 264.608 406.911 261.578 406.176C260.418 405.893 258.415 404.624 258.24 403.105C257.964 404.849 260.309 406.385 261.578 406.702C264.608 407.436 266.844 408.947 268.063 409.205C268.972 409.397 270.141 409.522 270.867 408.813C271.055 408.607 271.19 408.357 271.259 408.087C270.81 408.429 270.287 408.662 269.732 408.766C269.177 408.871 268.605 408.844 268.063 408.688" fill="#9C73FF"/>
<path d="M271.476 386.809C271.215 384.583 270.751 382.385 270.091 380.242C270.091 380.242 270.5 374.576 270.709 369.203C270.942 363.111 273.054 357.746 271.385 352.881L252.823 357.053C252.823 357.053 253.716 381.402 253.967 384.348C254.103 386.638 254.381 388.918 254.801 391.173C255.636 395.888 256.596 406.443 256.596 406.443C258.59 407.603 261.503 406.652 261.503 406.652C261.503 406.652 261.503 393.434 261.386 390.038C261.228 385.866 261.102 386.2 261.102 386.2L261.728 375.861L262.129 370.721C262.129 370.721 262.655 374.493 262.964 377.864C263.264 380.801 263.973 383.463 264.766 388.937C265.451 393.685 266.16 403.356 266.16 403.356C268.155 404.516 270.825 403.715 270.825 403.715C270.825 403.715 271.977 390.965 271.443 386.851" fill="#8C50FF"/>
<path d="M268.873 323.968C267.437 324.035 266.369 324.402 266.194 323.968C266.039 323.227 265.93 322.478 265.868 321.723C266.027 321.315 266.169 320.889 266.169 320.889C267.971 319.779 268.539 317.835 268.772 315.574C269.181 311.702 267.103 308.314 263.222 307.914C259.584 307.538 256.905 310.091 256.187 313.604C255.803 315.332 255.043 318.611 256.078 321.456C256.654 323.05 257.397 324.319 258.148 324.569C258.869 324.544 259.588 324.48 260.301 324.377V324.377C260.301 324.377 260.493 325.453 260.627 326.146C260.76 326.838 260.71 327.197 259.333 328.04C257.956 328.883 261.411 330.627 263.665 330.46C265.918 330.293 268.455 328.925 269.156 327.464C269.933 325.846 269.866 323.926 268.881 323.976" fill="#FFCEA9"/>
<path d="M266.794 324.177C267.195 325.17 266.185 326.38 263.498 327.222C260.81 328.065 260.56 326.98 260.56 326.98C258.769 327.78 257.025 328.68 255.335 329.676C253.716 330.802 252.999 334.073 252.782 339.58C252.531 345.964 252.515 355.434 252.723 357.103C252.723 357.103 255.744 360.116 259.6 359.799C263.456 359.481 269.966 356.06 271.543 353.423C271.493 347.824 270.842 346.915 271.752 343.694C273.822 336.318 274.915 333.297 273.905 328.391C273.071 324.352 271.91 323.851 270.316 323.885C269.137 323.934 267.962 324.046 266.794 324.218" fill="#F4F4F4"/>
<path d="M256.12 361.976L258.081 339.756L253.908 337.561L252.289 338.913L252.79 358.872V359.423V360.124C252.79 360.124 252.698 361.793 255.869 363.812C255.869 363.812 255.92 363.286 255.961 362.794L256.036 361.96L256.12 361.976Z" fill="#FFCEA9"/>
<path d="M256.612 328.299C254.476 328.257 253.107 329.392 252.589 332.688C252.072 335.984 251.755 338.679 251.755 338.679C252.736 339.776 254.102 340.454 255.569 340.573C258.156 340.857 258.907 339.547 258.907 339.547C258.907 339.547 259.174 336.117 259.325 333.798C259.475 331.478 259.258 328.349 256.612 328.299Z" fill="#EDEDED"/>
<path d="M260.218 306.962C265.442 306.22 268.798 309.574 269.19 313.212C269.557 316.692 267.412 320.305 265.851 321.74C264.332 322.132 262.72 321.938 261.336 321.198C261.248 320.249 261.215 319.296 261.236 318.344C261.236 318.344 263.782 312.987 256.295 313.079C256.295 313.079 252.957 307.997 260.201 306.962" fill="#3A2C6D"/>
<path d="M234.896 230.804C235.088 232.531 237.15 239.983 236.707 242.486C236.265 244.989 229.238 249.295 229.238 249.295L228.27 244.931L232.159 241.151L231.107 233.925L234.896 230.804Z" fill="#FFCEA9"/>
<path d="M229.463 223.477C230.146 223.161 230.922 223.106 231.642 223.325C232.363 223.543 232.977 224.019 233.369 224.662C234.404 226.373 235.48 232.247 235.572 233.249C235.572 233.249 234.128 235.251 231.95 234.918L229.463 223.477Z" fill="#EDEDED"/>
<path d="M221.434 306.378C219.905 306.802 218.27 306.604 216.886 305.827C215.792 305.827 209.85 303.324 209.041 305.452C208.331 307.321 210.91 309.057 212.279 309.391C215.283 310.117 217.503 311.61 218.714 311.894C219.615 312.086 220.775 312.211 221.493 311.502C222.327 310.667 222.277 307.521 221.434 306.403" fill="#38226D"/>
<path d="M218.713 311.351C217.503 311.093 215.283 309.599 212.278 308.848C211.127 308.564 209.14 307.304 208.94 305.802C208.673 307.53 211.002 309.057 212.278 309.365C215.283 310.091 217.503 311.585 218.713 311.869C219.615 312.061 220.775 312.186 221.492 311.477C221.676 311.27 221.81 311.025 221.885 310.759C221.438 311.097 220.919 311.326 220.369 311.429C219.818 311.532 219.252 311.505 218.713 311.351" fill="#9C73FF"/>
<path d="M231.082 302.064C229.552 302.488 227.917 302.29 226.533 301.514C225.432 301.514 219.489 299.01 218.68 301.138C217.97 303.016 220.549 304.743 221.926 305.077C224.931 305.802 227.151 307.304 228.353 307.58C229.254 307.772 230.414 307.897 231.132 307.188C231.966 306.353 231.916 303.207 231.082 302.089" fill="#38226D"/>
<path d="M228.353 307.021C227.151 306.77 224.931 305.268 221.926 304.517C220.775 304.242 218.788 302.974 218.588 301.472C218.321 303.199 220.641 304.726 221.926 305.035C224.931 305.761 227.151 307.263 228.353 307.538C229.254 307.73 230.414 307.855 231.132 307.146C231.32 306.943 231.455 306.696 231.524 306.428C231.079 306.768 230.56 306.998 230.009 307.101C229.458 307.204 228.891 307.176 228.353 307.021Z" fill="#9C73FF"/>
<path d="M231.199 285.901C230.942 283.691 230.481 281.51 229.822 279.384C229.822 279.384 230.231 273.769 230.44 268.445C230.673 262.395 232.768 257.08 231.116 252.257L212.462 256.429C212.462 256.429 213.589 280.528 213.839 283.448C213.974 285.716 214.253 287.974 214.674 290.207C215.509 294.888 216.911 306.019 216.911 306.019C218.329 306.698 219.935 306.878 221.468 306.528C221.468 306.528 221.326 292.46 221.201 289.089C221.042 284.967 220.917 285.284 220.917 285.284L221.534 275.029L221.943 269.93C221.943 269.93 222.461 273.677 222.778 277.015C223.07 279.935 223.771 282.572 224.556 287.996C225.24 292.702 226.35 302.181 226.35 302.181C228.32 303.324 230.999 302.373 230.999 302.373C230.999 302.373 231.716 290.023 231.182 285.943" fill="#FF7B7B"/>
<path d="M228.47 223.578C227.051 223.653 225.966 224.02 225.816 223.578C225.661 222.845 225.552 222.104 225.49 221.358C225.657 220.949 225.799 220.524 225.799 220.524C227.568 219.456 228.144 217.495 228.403 215.283C228.804 211.445 226.734 208.091 222.895 207.69C219.281 207.315 216.627 209.851 215.926 213.331C215.542 215.05 214.782 218.296 215.809 221.124C216.376 222.701 217.119 223.953 217.862 224.203C218.577 224.179 219.29 224.115 219.999 224.012V224.012C219.999 224.012 220.191 225.08 220.324 225.764C220.458 226.448 220.408 226.807 219.039 227.65C217.67 228.492 221.1 230.211 223.337 230.044C225.574 229.878 228.086 228.526 228.778 227.082C229.546 225.463 229.48 223.569 228.503 223.611" fill="#FFCEA9"/>
<path d="M226.417 223.795C226.809 224.771 225.807 225.972 223.145 226.815C220.483 227.658 220.232 226.573 220.232 226.573C218.455 227.364 216.725 228.256 215.049 229.243C213.447 230.362 212.738 233.599 212.546 239.065C212.295 245.398 212.27 254.785 212.487 256.404C212.487 256.404 215.475 259.383 219.306 259.074C223.137 258.766 229.58 255.369 231.14 252.749C231.099 247.2 230.456 246.299 231.349 243.103C233.411 235.785 234.487 232.79 233.494 227.925C232.659 223.92 231.508 223.419 229.93 223.461C228.762 223.51 227.598 223.622 226.442 223.795" fill="#F4F4F4"/>
<path d="M206.495 244.297C209.641 245.131 210.376 243.112 210.793 241.468C211.794 237.496 212.329 233.908 213.08 231.655C213.956 228.993 214.874 228.576 216.168 228.05C217.687 227.449 218.989 228.726 218.488 232.114C217.866 236.037 216.902 239.898 215.609 243.654C215.216 244.897 214.34 247.092 213.021 248.152C211.402 249.462 208.957 249.412 205.268 248.485C203.691 248.093 201.93 247.159 198.975 245.765C198.182 245.39 197.556 245.148 196.021 244.43C194.478 243.738 193.126 242.681 192.081 241.351C191.247 240.191 191.172 239.64 191.33 239.373C191.489 239.106 191.906 239.115 192.332 239.607C192.953 240.436 193.719 241.146 194.593 241.701C194.593 241.701 193.6 240.675 193.066 240.033C192.583 239.441 192.182 238.787 191.873 238.088C191.589 237.412 192.173 236.486 192.624 236.97C193.075 237.454 193.275 237.947 194.093 238.923C194.523 239.44 195.01 239.908 195.545 240.316C195.043 239.633 194.596 238.91 194.21 238.155C193.859 237.566 193.688 236.887 193.717 236.203C193.717 235.852 194.243 235.427 194.71 236.102C195.166 237.023 195.726 237.888 196.38 238.681C197.097 239.423 197.715 239.849 197.732 239.64C197.748 239.432 197.298 239.031 197.039 238.163C196.78 237.296 197.039 236.378 197.523 236.278C198.007 236.178 197.907 236.203 198.291 237.012C198.818 237.847 199.295 238.714 199.718 239.607C199.96 240.444 200.405 241.209 201.012 241.835C201.788 242.669 203.515 243.562 206.478 244.338" fill="#FFCEA9"/>
<path d="M217.328 227.508C215.233 227.199 213.747 228.15 212.821 231.329C211.895 234.509 211.244 237.112 211.244 237.112C212.078 238.31 213.337 239.146 214.766 239.448C217.269 240.058 218.179 238.856 218.179 238.856C218.179 238.856 218.872 235.518 219.306 233.257C219.74 230.996 219.932 227.892 217.328 227.508" fill="#EDEDED"/>
<path d="M216.018 212.78C216.018 212.78 212.679 207.773 219.89 206.714C225.073 205.971 228.403 209.3 228.787 212.914C229.154 216.36 227.026 219.948 225.49 221.366C223.981 221.753 222.382 221.559 221.009 220.824C220.927 219.886 220.896 218.945 220.917 218.004C220.917 218.004 223.421 212.688 216.018 212.78" fill="#3A2C6D"/>
<path d="M150.427 326.964L150.402 334.457L75.4473 378.014L75.4723 370.521L150.427 326.964Z" fill="#D3D3DD"/>
<path d="M75.4722 370.521L75.4472 378.014L0 334.465L0.0250378 326.972L75.4722 370.521Z" fill="#E0DEE9"/>
<path d="M150.427 326.964L75.4721 370.521L0.0249023 326.972L74.9797 283.415L150.427 326.964Z" fill="#6E6E9C"/>
<path d="M138.735 213.389L138.417 325.812L75.3306 362.46L75.6477 250.046L138.735 213.389Z" fill="#D3D3DD"/>
<path d="M75.6475 250.046L75.3303 362.46L11.8262 325.812L12.1433 213.389L75.6475 250.046Z" fill="#E0DEE9"/>
<path d="M138.734 213.389L75.6472 250.046L12.1431 213.389L75.2299 176.733L138.734 213.389Z" fill="#6E6E9C"/>
<path d="M28.5096 262.546L28.4762 274.202L18.3359 268.345L18.3693 256.696L28.5096 262.546Z" fill="#2A313F"/>
<path d="M28.5599 246.333L28.5265 257.981L18.3862 252.132L18.4196 240.483L28.5599 246.333Z" fill="#2A313F"/>
<path d="M28.6014 230.12L28.568 241.777L18.436 235.919L18.4611 224.262L28.6014 230.12Z" fill="#2A313F"/>
<path d="M69.488 302.44L69.4547 314.097L33.0664 293.094L33.0998 281.437L69.488 302.44Z" fill="#2A313F"/>
<path d="M69.53 286.227L69.4966 297.884L33.1167 276.881L33.1501 265.224L69.53 286.227Z" fill="#2A313F"/>
<path d="M69.5798 270.014L69.5465 281.662L33.1582 260.66L33.1916 249.011L69.5798 270.014Z" fill="#2A313F"/>
<path d="M69.6218 253.792L69.5884 265.449L33.2085 244.447L33.2419 232.798L69.6218 253.792Z" fill="#2A313F"/>
<path d="M28.4178 294.972L28.3844 306.629L18.2441 300.771L18.2775 289.122L28.4178 294.972Z" fill="#2A313F"/>
<path d="M28.4681 278.759L28.4347 290.416L18.2944 284.566L18.3278 272.909L28.4681 278.759Z" fill="#2A313F"/>
<path d="M69.4382 318.653L69.4048 330.31L33.0249 309.307L33.0583 297.65L69.4382 318.653Z" fill="#2A313F"/>
<path d="M91.6633 264.281L91.6967 275.938L81.548 281.796L81.5146 270.139L91.6633 264.281Z" fill="#2A313F"/>
<path d="M91.6134 248.068L91.6468 259.725L81.5065 265.583L81.4731 253.926L91.6134 248.068Z" fill="#2A313F"/>
<path d="M132.817 289.256L132.85 300.904L96.4621 321.907L96.4287 310.258L132.817 289.256Z" fill="#2A313F"/>
<path d="M132.767 273.034L132.8 284.691L96.4206 305.694L96.3872 294.037L132.767 273.034Z" fill="#2A313F"/>
<path d="M132.725 256.83L132.759 268.478L96.3703 289.481L96.3369 277.824L132.725 256.83Z" fill="#2A313F"/>
<path d="M132.675 240.608L132.709 252.265L96.3288 273.268L96.2954 261.611L132.675 240.608Z" fill="#2A313F"/>
<path d="M132.633 224.395L132.667 236.044L96.2785 257.055L96.2451 245.398L132.633 224.395Z" fill="#2A313F"/>
<path d="M91.797 312.929L91.8304 324.577L81.6901 330.435L81.6567 318.786L91.797 312.929Z" fill="#2A313F"/>
<path d="M91.7551 296.707L91.7885 308.364L81.6398 314.222L81.6064 302.565L91.7551 296.707Z" fill="#2A313F"/>
<path d="M91.7052 280.503L91.7386 292.151L81.5983 298.009L81.5649 286.36L91.7052 280.503Z" fill="#2A313F"/>
<path d="M138.442 316.742L138.417 325.804L75.3306 362.46L75.3473 353.182L138.442 316.742Z" fill="#9052FE"/>
<path d="M75.347 353.182L75.322 362.46L11.8262 325.812L11.8512 316.525L75.347 353.182Z" fill="#9052FE"/>
<path d="M74.9384 214.874C75.1773 214.891 75.4171 214.891 75.6561 214.874L79.2615 216.961C76.6826 217.745 73.9286 217.745 71.3496 216.961L74.9384 214.874Z" fill="#2A313F"/>
<path d="M59.2559 201.665C68.4364 197.218 81.9401 197.218 91.1874 201.665L87.9325 203.551C80.4962 200.13 69.922 200.13 62.5358 203.551L59.2559 201.665Z" fill="#2A313F"/>
<path d="M64.8228 204.878C71.4947 202.175 78.9572 202.175 85.6292 204.878L82.3492 206.789C77.7712 205.097 72.7392 205.097 68.1611 206.789L64.8228 204.878Z" fill="#2A313F"/>
<path d="M71.2993 208.608C73.8811 207.824 76.6378 207.824 79.2196 208.608L75.6726 210.694H74.9381L71.2993 208.608Z" fill="#2A313F"/>
<path d="M78.894 212.997C78.9107 212.858 78.9107 212.718 78.894 212.58L82.4828 210.494C82.8008 210.785 83.0548 211.138 83.2286 211.533C83.4024 211.927 83.4921 212.353 83.4921 212.784C83.4921 213.215 83.4024 213.641 83.2286 214.036C83.0548 214.43 82.8008 214.784 82.4828 215.075L78.894 212.997Z" fill="#2A313F"/>
<path d="M85.6875 216.952C88.6086 214.449 88.6002 211.178 85.6875 208.708L88.9674 206.806C93.6662 210.344 93.6912 215.317 89.0342 218.855L85.6875 216.952Z" fill="#2A313F"/>
<path d="M64.8894 208.666C61.9684 211.17 61.9934 214.441 64.9479 216.911L61.6596 218.813C56.9608 215.275 56.9358 210.302 61.5928 206.764L64.8894 208.666Z" fill="#2A313F"/>
<path d="M91.2793 220.148C97.1214 215.859 97.1214 209.726 91.1958 205.437L94.4507 203.543C102.146 208.883 102.196 216.694 94.5509 222.034L91.2793 220.148Z" fill="#2A313F"/>
<path d="M62.6362 222.026C70.0641 225.438 80.6551 225.438 88.0329 222.026L91.3045 223.92C82.124 228.359 68.6286 228.359 59.3896 223.92L62.6362 222.026Z" fill="#2A313F"/>
<path d="M59.2897 205.437C53.4475 209.718 53.4475 215.851 59.3731 220.148L56.1266 222.034C48.4149 216.694 48.3732 208.883 56.0181 203.543L59.2897 205.437Z" fill="#2A313F"/>
<path d="M68.2028 218.788C72.7809 220.48 77.8129 220.48 82.3909 218.788L85.7293 220.699C79.0561 223.41 71.5878 223.41 64.9146 220.699L68.2028 218.788Z" fill="#2A313F"/>
<path d="M71.6668 212.58C71.6459 212.718 71.6459 212.859 71.6668 212.997L68.078 215.083C67.7575 214.793 67.5013 214.439 67.326 214.044C67.1506 213.648 67.0601 213.221 67.0601 212.788C67.0601 212.356 67.1506 211.929 67.326 211.533C67.5013 211.138 67.7575 210.784 68.078 210.494L71.6668 212.58Z" fill="#2A313F"/>
</g>
<defs>
<clipPath id="clip0_40_44">
<rect width="370" height="417.216" fill="white"/>
</clipPath>
</defs>
</svg>
