<svg width="103" height="102" viewBox="0 0 103 102" fill="none" xmlns="http://www.w3.org/2000/svg">
<g filter="url(#filter0_dd_0_1)">
<g filter="url(#filter1_i_0_1)">
<circle cx="51" cy="51" r="40" fill="#282828"/>
</g>
</g>
<path d="M74.8758 37.8481C73.1748 40.2834 71.0526 42.3953 68.6091 44.0844C68.4545 48.356 67.2075 52.5167 64.9873 56.1693C62.7671 59.822 59.6478 62.8445 55.927 64.9485C52.2062 67.0525 48.0083 68.1677 43.7339 68.1876C39.4595 68.2075 35.2513 67.1315 31.5111 65.0622L31.5124 65.0599C36.3964 64.9923 41.1525 63.4883 45.1875 60.7356C40.8682 57.7917 37.5783 53.5701 35.7794 48.6622C33.9805 43.7544 33.7625 38.4066 35.1562 33.3687C37.1522 36.4426 39.7997 39.04 42.9113 40.9769C46.0228 42.9138 49.5222 44.1427 53.1616 44.5766C52.7783 42.7497 53.0612 40.846 53.96 39.2099C54.8588 37.5738 56.3136 36.3136 58.0611 35.6572C59.8086 35.0008 61.7333 34.9916 63.487 35.6314C65.2406 36.2711 66.7073 37.5175 67.6216 39.145C70.0903 39.0713 72.5347 38.6349 74.8758 37.8481Z" stroke="#E5E5E5" stroke-width="3" stroke-linecap="round" stroke-linejoin="round"/>
<defs>
<filter id="filter0_dd_0_1" x="0" y="0" width="103" height="102" filterUnits="userSpaceOnUse" color-interpolation-filters="sRGB">
<feFlood flood-opacity="0" result="BackgroundImageFix"/>
<feColorMatrix in="SourceAlpha" type="matrix" values="0 0 0 0 0 0 0 0 0 0 0 0 0 0 0 0 0 0 127 0" result="hardAlpha"/>
<feOffset dx="-3" dy="-3"/>
<feGaussianBlur stdDeviation="4"/>
<feColorMatrix type="matrix" values="0 0 0 0 0.294064 0 0 0 0 0.364384 0 0 0 0 0.405936 0 0 0 0.1 0"/>
<feBlend mode="normal" in2="BackgroundImageFix" result="effect1_dropShadow_0_1"/>
<feColorMatrix in="SourceAlpha" type="matrix" values="0 0 0 0 0 0 0 0 0 0 0 0 0 0 0 0 0 0 127 0" result="hardAlpha"/>
<feOffset dx="4" dy="3"/>
<feGaussianBlur stdDeviation="4"/>
<feColorMatrix type="matrix" values="0 0 0 0 0 0 0 0 0 0 0 0 0 0 0 0 0 0 0.25 0"/>
<feBlend mode="normal" in2="effect1_dropShadow_0_1" result="effect2_dropShadow_0_1"/>
<feBlend mode="normal" in="SourceGraphic" in2="effect2_dropShadow_0_1" result="shape"/>
</filter>
<filter id="filter1_i_0_1" x="11" y="11" width="82" height="82" filterUnits="userSpaceOnUse" color-interpolation-filters="sRGB">
<feFlood flood-opacity="0" result="BackgroundImageFix"/>
<feBlend mode="normal" in="SourceGraphic" in2="BackgroundImageFix" result="shape"/>
<feColorMatrix in="SourceAlpha" type="matrix" values="0 0 0 0 0 0 0 0 0 0 0 0 0 0 0 0 0 0 127 0" result="hardAlpha"/>
<feOffset dx="2" dy="2"/>
<feGaussianBlur stdDeviation="2"/>
<feComposite in2="hardAlpha" operator="arithmetic" k2="-1" k3="1"/>
<feColorMatrix type="matrix" values="0 0 0 0 0 0 0 0 0 0 0 0 0 0 0 0 0 0 0.3 0"/>
<feBlend mode="normal" in2="shape" result="effect1_innerShadow_0_1"/>
</filter>
</defs>
</svg>
